<?xml version="1.0" encoding="utf-8"?>
<!-- Generator: Adobe Adobe Illustrator 24.2.0, SVG Export Plug-In . SVG Version: 6.00 Build 0)  -->
<svg version="1.1" xmlns="http://www.w3.org/2000/svg" xmlns:xlink="http://www.w3.org/1999/xlink" x="0px" y="0px" width="2048px"
	 height="2048px" viewBox="0 0 2048 2048" style="enable-background:new 0 0 2048 2048;" xml:space="preserve">
<style type="text/css">
	.st0{fill:none;stroke:#000000;stroke-width:69;stroke-miterlimit:10;}
	.st1{fill:url(#SVGID_1_);}
	.st2{fill:#C9BCE6;stroke:#000000;stroke-width:32;stroke-miterlimit:10;}
	.st3{fill:none;stroke:#000000;stroke-width:32;stroke-miterlimit:10;}
	.st4{fill:#E9E1FA;}
	.st5{fill:#D5C2FF;}
</style>
<g id="Layer_1">
	<circle class="st0" cx="1024" cy="1245.44" r="760"/>
</g>
<g id="Layer_1_copy">
	<linearGradient id="SVGID_1_" gradientUnits="userSpaceOnUse" x1="250.6123" y1="1245.4393" x2="1784" y2="1245.4393">
		<stop  offset="0" style="stop-color:#5437AB"/>
		<stop  offset="1" style="stop-color:#A2B2FA"/>
	</linearGradient>
	<circle class="st1" cx="1024" cy="1245.44" r="760"/>
</g>
<g id="Layer_5_copy_5">
</g>
<g id="Layer_5_copy_6">
</g>
<g id="Layer_2">
	<path class="st2" d="M901.01,466.27c60.24-11.65,122.1-13.99,183.04-6.93c50.89,5.89,100.63,17.95,148.37,36.09h1.58V370.04H814
		v120.25C842.32,480.03,871.42,471.99,901.01,466.27z"/>
</g>
<g id="Layer_7_copy_4">
	<g>
		<g>
			<g>
				<g>
					<g>
						<g>
							<g>
								<g>
									<g>
										<g>
											<g>
												<g>
													<g>
														<g>
															<g>
																<path class="st3" d="M934,485.44c-306.64,432.83-218.42,1209.04,0,1520"/>
																<path class="st3" d="M693.54,541.93C675,562,662,584,645,607c-14,20-25,39-36,60c-32,60-57,120-77,184
																	c-2,8-4,16-7,24c-2,6-3,13-5,19c-2,7-2,13-4,20c0,1-2,3-2,4c-2,9-3,16-5,25c0,1-2,3-2,4c-12,56-23,108-27,163
																	c-1,4-2,9-3,13c-1,13-2,26-3,39c-2,30-3,59-4,89c-1,49,0,98,4,148c4,40,7,79,14,120c7,42,13,82,26,122
																	c2,6,2,13,4,19c15,55,32,106,57,157c1,1,2,3,3,4c17,37,39,70,62.35,102.6"/>
															</g>
														</g>
													</g>
													<g>
														<g>
															<g>
																<path class="st3" d="M1070.28,2017.46C1116,1951,1151,1879,1179,1803c10-26,19-51,26-78c6-19,11-37,16-56
																	c52-205,57-408,38-612c-24-202-66-407-169.7-584.12"/>
																<path class="st3" d="M1293.57,1979.11C1316,1953,1335,1927,1355,1897c3-3,5-6,8-10c26-42,46-83,66-127c1-2,0-3,1-5
																	c13-26,22-53,32-81c13-41,25-80,35-123c3-16,7-31,9-48c2-10,4-19,6-29c6-35,9-67,14-102c1-12,1-23,3-35c0-3,0-6,0-9
																	c4-37,4-74,6-111c1-52-2-103-5-155c-3-39-9-76-13-115c-3-22-7-43-12-65c-2-11-4-21-7-32c-4-14-5-28-9-41
																	c-1-2-3-4-3-6c-4-24-12-46-19-69c-1-3-3-5-4-8c-4-14-9-27-14-40c-4-10-10-20-14-31c-1-2,0-3-1-5
																	c-13-28-27-55-42.65-80.55"/>
															</g>
														</g>
													</g>
												</g>
											</g>
										</g>
										<g>
											<g>
												<g>
													<g>
														<g>
															<g>
																<path class="st3" d="M246.69,1143.35c-1.17,0.75-2.34,1.5-3.51,2.25"/>
																<path class="st3" d="M1794.81,1123.61C1792,1122,1789,1121,1786,1119c-14-10-28-16-42-24c-26-13-52-24-78-36
																	c-2-1-3,0-5-1c-38-16-75-30-116-41c-28-7-53-15-82-21c-1,0-3-2-4-2c-75-16-145-28-219-35c-3,0-7,0-10,0
																	c-217-19-428-2-645,50c-16,3-31,6-46,11c-26,8-52,15-78,24c-17,6-33,12-50,18c-9,3-18,8-27,11c-24,10-47,20-71,32
																	c-22,12-45,22-65.22,37.66"/>
																<path class="st3" d="M1799.84,1126.63c-0.93-0.56-1.86-1.12-2.79-1.68"/>
																<path class="st3" d="M1707.88,861.25C1666,836,1623,813,1577,794c-2-1-3,0-5-1c-136-57-279-87-426-100
																	c-5-1-10-1-15-2c-33-3-65-4-97-5c-62-1-125,4-187,6c-168,16-337,52-484.44,138.47"/>
															</g>
														</g>
													</g>
													<g>
														<g>
															<g>
																<path class="st3" d="M247.73,1302.54C252,1304,255,1306,259,1308c34,22,68,36,102,54c15,4,29,12,43,18c2,1,3,0,5,1
																	c54,22,108,39,166,53c1,0,3,2,4,2c54,12,105,23,159,29c40,5,78,11,118,14c14,1,29,2,43,3c30,2,60,2,90,3
																	c82,1,164,0,247-10c6,0,13,0,19-1c26-4,51-5,77-9c49-7,94-16,143-25c3-1,6-2,9-3c48-10,92-22,138-36c3-1,7-1,10-2
																	c29-11,58-19,86-32c5-2,9-2,14-4s10-6,15-8c18-6,35-15,52.47-22.92"/>
																<path class="st3" d="M302.82,1541.44C324,1560,349,1571,373,1587c3,2,6,2,9,4c20,13,41,21,62,32c2,1,3,0,5,1
																	c131,60,268,94,411,111c7,1,13,4,20,5c6,0,13,1,19,2c82,9,162,11,243,9c21-1,42-2,63-3c29-2,58-5,88-7
																	c37-4,73-9,111-15c24-5,46-8,70-14c18-5,35-8,52-13c18-6,36-11,54-16c11-4,21-9,32-12c8-3,15-6,23-10c4-1,8-2,12-3
																	c5-2,10-6,15-8c10-3,18-8,27.58-11.4"/>
															</g>
														</g>
													</g>
												</g>
											</g>
										</g>
									</g>
								</g>
							</g>
							<line class="st3" x1="988.65" y1="485.44" x2="988.65" y2="2005.44"/>
						</g>
					</g>
				</g>
				<line class="st3" x1="264" y1="1224.16" x2="1784" y2="1245.44"/>
			</g>
		</g>
	</g>
</g>
<g id="Layer_3">
	<rect x="982.54" y="-57.96" class="st2" width="82" height="428"/>
	<path class="st2" d="M981.13-17.43c25.96,21.89,56.55,38.28,89.15,47.77"/>
	<path class="st2" d="M981.41,55.67c24.64,25.35,56.36,43.74,90.6,52.53"/>
	<path class="st2" d="M988.65,149.46c19.81,18.05,46.19,28.74,72.98,29.58"/>
	<path class="st2" d="M987.55,230.23c17.99,19.07,44.04,30.28,70.26,30.24"/>
	<path class="st2" d="M979.69,302.46c22.99,20.31,48,38.32,74.54,53.68c1.47,0.85,3.25,1.7,4.77,0.95c1.51-0.76,1.05-3.82-0.58-3.38
		"/>
</g>
<g id="Layer_8">
	<path class="st4" d="M1148.88,752.07c-0.43-1.6-1.23-3.02-1.82-4.55c-0.82-1.49-2.59-3.65-3.36-4.41c-1.21-0.89-2.34-1.91-3.6-2.72
		c-1.27-0.57-2.57-1.08-3.85-1.63c-1.68-0.45-3.02-0.47-4.8-0.74c-1.62,0.07-3.24,0.4-4.86,0.6c-1.49,0.58-3.02,1.15-4.42,1.9
		c-0.13,0.1-2.18,1.61-3.18,2.46c-1.15,1.34-2.34,2.73-3.23,4.25c-1.05,2.53-2.4,5.01-2.52,7.8c-0.89,5.3,1.31,11.78,5.9,14.8
		c2.65,2.38,6.24,3.42,9.8,3.28c0.82,0.22,1.65,0.38,2.52,0.42c3.39,0.91,6.73-0.39,9.8-1.82c3.8-2.12,6.07-5.86,7.5-9.85
		c0.36-1.76,0.62-3.59,0.72-5.38C1149.31,754.91,1149,752.91,1148.88,752.07z"/>
	<path class="st4" d="M1173.28,839.24c-2.24-12.09-4.43-24.18-6.7-36.26c-1.55-5.68-6.76-10.67-12.77-11.01
		c-3.39-0.91-6.73,0.39-9.8,1.82c-5.88,3.36-8.92,10.84-7.06,17.35c2.2,11.61,4.33,23.23,6.5,34.85c1.15,4.68,0.89,10.21,4.37,13.91
		c2.16,3.27,6.08,5.56,10,5.77c3.39,0.91,6.72-0.38,9.78-1.82c3.58-1.97,5.75-5.39,7.05-9.16
		C1176.14,849.53,1173.97,844.37,1173.28,839.24z"/>
	<g>
		<path class="st4" d="M947.81,1003.69c0.03-4.04-1.65-8.02-4.5-10.87c-2.84-2.85-6.83-4.52-10.87-4.5c-4.06,0.27-8,1.47-10.87,4.5
			c-2.7,3.04-4.61,6.7-4.5,10.86c0.15,15.35,0.42,30.78,2.23,46.03c0.62,2.28,1.83,4.41,3.51,6.09c7.68,7.6,20.17,3.55,22.75-6.05
			c0,0,0,0,0,0.01c0,0,0-0.01,0-0.01c0.3-1.12,0.48-2.31,0.49-3.57c-0.01,0.05-0.02,0.11-0.02,0.17c0.01-0.1,0.03-0.21,0.04-0.31
			C947.21,1031.95,947.8,1017.83,947.81,1003.69z"/>
		<path class="st4" d="M919.31,1049.71c-0.16-1.13-0.33-2.55-0.48-3.53C918.82,1047.38,919,1048.57,919.31,1049.71z"/>
		<path class="st4" d="M919.32,1049.77c0-0.01,0-0.03,0-0.04c0,0,0-0.01,0-0.01C919.31,1049.73,919.32,1049.75,919.32,1049.77z"/>
	</g>
	<path class="st4" d="M1209.66,1535.81c-0.83-3.84-2.81-7.07-5.34-10c-2.43-2.51-4.97-3.95-8.21-5.14
		c-3.01-0.76-6.19-1.04-9.24-0.23c-2.85,0.88-5.41,2.37-7.63,4.36c-5.63,5.98-7.14,14.26-4.52,20.94c0.03,0.24,0.06,0.47,0.08,0.71
		c0.81,3.15,2.5,5.96,4.67,8.37c2.27,2.01,4.8,3.66,7.73,4.53c1.5,0.17,2.99,0.46,4.5,0.57c3.3-0.19,6.51-1.03,9.37-2.71
		c2.78-1.95,5-4.03,6.68-7.02c1.44-2.86,2.26-5.87,2.46-9.07C1210.32,1539.35,1209.87,1537.57,1209.66,1535.81z"/>
	<path class="st4" d="M1193.29,1585.09c-2.84-2.85-6.83-4.52-10.87-4.5c-4.06,0.27-8,1.47-10.87,4.5c-2.7,3.04-4.61,6.7-4.5,10.86
		c-1.95,15.63-3.76,31.27-5.86,46.88c-0.44,2.97-0.89,5.94-1.69,8.83c-1.36,4.08-0.84,8.71,1.33,12.41c1.98,3.39,5.31,5.96,9.1,7
		c5.82,1.26,10.4,0.11,14.82-3.92c2.59-2.51,3.84-5.89,4.75-9.31c3.52-19.86,5.37-39.99,8.05-59.98
		C1198.42,1593.24,1196.56,1588.38,1193.29,1585.09z"/>
	<path class="st4" d="M1683.27,928.67c0.1,0.24,0.2,0.48,0.3,0.72c-0.21-0.48-0.41-0.96-0.63-1.43
		c-2.31-5.14-11.22-26.36-18.78-41.75c-2-3.42-5.36-6.02-9.18-7.06c-3.94-1.1-8.31-0.52-11.84,1.55c-3.32,2.23-6.08,5.21-7.06,9.18
		c-0.83,4.05-0.69,8.24,1.55,11.84c4.7,9.54,9.05,19.24,13.38,28.95c1.7,3.69,3.48,7.35,5.44,10.91c2,4.19,5.47,7.76,10.07,8.94
		c3.81,1.06,8.04,0.5,11.44-1.5c1-0.77,2-1.55,3.01-2.32c2.93-2.77,4.1-6.58,4.35-10.5C1685.3,933.5,1684.62,930.99,1683.27,928.67z
		"/>
	<path class="st4" d="M1744.06,1142.52c-0.06-0.15-0.13-0.29-0.19-0.44c-0.24-1.87-0.82-3.69-1.87-5.37c-3.45-6.26-11-9.4-17.9-7.7
		c-5.71,1.53-10.53,6.83-10.99,12.76c-0.96,3.77,0.59,7.51,2.23,10.88c0.6,1.43,1.28,3.08,1.79,4.04c2.25,3.74,5.64,6.63,9.82,7.98
		c3.28,0.56,6.8,0.99,9.79-0.76c5.5-2,9.31-7.92,9.25-13.75C1746.02,1147.45,1745.35,1144.88,1744.06,1142.52z"/>
	<path class="st4" d="M1560.22,1731.99c-3.83,0.25-7.56,1.39-10.26,4.25c-1.97,1.88-4,3.68-5.88,5.64
		c-5.7,5.56-11.39,11.13-17.4,16.36c-2.67,2.21-5.37,4.4-8.06,6.6c-2.21,1.62-4.12,3.71-4.91,6.36c-2.8,5.44-1.07,12.57,3.18,16.79
		c3.04,2.7,6.7,4.61,10.87,4.5c4.06-0.27,8-1.47,10.86-4.5c11.81-9.43,23.22-19.54,32.28-31.69
		C1579.35,1747.08,1572.88,1732.09,1560.22,1731.99z"/>
	<path class="st4" d="M1475.13,1043.95c-2.53-4.15-6.73-7.02-11.25-8.62c-4.24-1.77-9.29-1.25-13.22,1.04
		c-3.42,2-6.02,5.36-7.06,9.18c-0.18,1.36-0.37,2.72-0.55,4.08c-0.07,6.36,4.28,12.39,10.24,14.49c3.66,2.72,8.56,3.66,12.97,2.44
		c6.41-1.69,11.19-7.92,11.09-14.57C1477.44,1049.07,1476.3,1046.55,1475.13,1043.95z"/>
	<path class="st4" d="M1488.91,1159.71c-0.31-3.4-0.67-6.8-1.14-10.19c-1.42-11.21-3.01-22.4-4.83-33.54
		c-0.4-2.24-0.81-4.48-1.21-6.72c-1.55-5.68-6.76-10.67-12.77-11.01c-3.39-0.91-6.73,0.38-9.8,1.82
		c-5.88,3.36-8.92,10.84-7.06,17.35c3.88,22.46,4.07,23.92,6.59,45.48c-0.03,4,1.64,7.95,4.46,10.77c2.82,2.83,6.77,4.48,10.77,4.46
		c5.92-0.33,9.89-2.57,13.15-7.54C1489.07,1167.29,1489.39,1163.46,1488.91,1159.71z"/>
</g>
<g id="Layer_9">
	<path class="st5" d="M679.53,1275.22c-2.84-2.85-6.83-4.52-10.87-4.5c-1.36,0.18-2.72,0.37-4.08,0.55
		c-2.59,0.64-4.75,2.04-6.56,3.85c-1.1,0.83-2.07,1.83-2.83,3c-3.18,3.45-3.75,8.4-2.91,12.88c-0.42,1.83-0.6,3.68-0.12,5.53
		c0.33,6.01,5.33,11.22,11.01,12.77c4.05,0.83,8.25,0.69,11.84-1.55c3.32-2.23,6.07-5.21,7.06-9.18c0.52-2,0.85-4.09,0.93-6.19
		c0.14-0.35,0.26-0.71,0.38-1.07c0.2-1.43,0.42-2.94,0.59-4.42C684.34,1282.61,682.54,1278.25,679.53,1275.22z"/>
	<path class="st5" d="M693.29,1386.47c0-0.03,0-0.05-0.01-0.08c0.01-0.68-0.03-1.35-0.14-2.03c-0.31-4.43-0.71-8.85-1.3-13.24
		c-1.26-10.41-2.53-20.81-4.1-31.18c-1.55-5.68-6.76-10.67-12.77-11.01c-3.39-0.91-6.73,0.38-9.8,1.82
		c-5.88,3.36-8.92,10.84-7.06,17.35c1.82,11.87,3.5,23.78,6.35,35.45c1.16,3.81,1.47,8.24,4.23,11.29c5.29,7.9,18.23,6.78,22.73-1.4
		c1.13-2.22,1.84-4.6,1.87-7.03C693.28,1386.45,693.28,1386.46,693.29,1386.47z"/>
	<path class="st5" d="M950.1,1799.32c0.06-1.01,0-2.01-0.26-3.03c-0.33-6.01-5.33-11.22-11.01-12.77
		c-4.05-0.83-8.25-0.69-11.84,1.55c-3.32,2.23-6.07,5.21-7.06,9.18c-1.06,4.61-0.47,9.23,0.71,13.76c1.04,3.82,3.63,7.17,7.05,9.16
		c3.52,2.07,7.88,2.63,11.81,1.55c5.6-1.87,8.84-5.11,10.71-10.71C951.14,1805.09,950.69,1802.21,950.1,1799.32z"/>
	<path class="st5" d="M853.34,526.86c-7.29-4.15-16.77-1.8-21.02,5.51c-4.44,8.68-8.65,17.49-11.99,26.67
		c-0.4,0.77-0.7,1.56-0.91,2.39c-0.02,0.05-0.04,0.1-0.06,0.15c0.02-0.04,0.03-0.08,0.05-0.12c-0.16,0.65-0.27,1.31-0.3,1.99
		c-1.18,5.43,2.02,11.27,6.71,14.01c4.73,2.52,9.46,2.53,14.19,0c2.91-1.61,4.75-4.32,6.31-7.18c1.76-2.98,3.6-5.91,5.22-8.97
		c2.44-4.48,5.09-8.84,7.31-13.43c1.12-1.76,1.73-3.67,1.82-5.71C861.96,536.23,858.47,529.85,853.34,526.86z"/>
</g>
</svg>
