<?xml version="1.0" encoding="utf-8"?>
<!-- Generator: Adobe Adobe Illustrator 24.2.0, SVG Export Plug-In . SVG Version: 6.00 Build 0)  -->
<svg version="1.1" xmlns="http://www.w3.org/2000/svg" xmlns:xlink="http://www.w3.org/1999/xlink" x="0px" y="0px" width="2048px"
	 height="2048px" viewBox="0 0 2048 2048" style="enable-background:new 0 0 2048 2048;" xml:space="preserve">
<style type="text/css">
	.st0{fill:#8829D6;}
	.st1{fill:none;stroke:#000000;stroke-width:27;stroke-miterlimit:10;}
	.st2{fill:#A747F5;}
</style>
<g id="Layer_1">
	<g>
		<g>
			<path class="st0" d="M1844,740.83c-232.06,0-998.39,0-998.39,0s14.61-285.6,0-272.5c-354.6,317.96-801.61,545-801.61,545
				s704.61,377.2,801.61,525c17.37,26.46,0-252.5,0-252.5s843.68,0,998.39,0C1980.25,1285.83,1980.25,740.83,1844,740.83z"/>
		</g>
	</g>
</g>
<g id="Layer_1_copy">
	<g>
		<g>
			<path class="st1" d="M1844,740.83c-232.06,0-998.39,0-998.39,0s14.61-285.6,0-272.5c-354.6,317.96-801.61,545-801.61,545
				s704.61,377.2,801.61,525c17.37,26.46,0-252.5,0-252.5s843.68,0,998.39,0C1980.25,1285.83,1980.25,740.83,1844,740.83z"/>
		</g>
	</g>
</g>
<g id="Layer_3">
</g>
<g id="Layer_8">
	<g>
		<g>
			<g>
				<path class="st2" d="M1899.28,1115c0-61.3-49.7-111-111-111c-37.28,0-70.26,18.38-90.39,46.57c-0.92,1.63-1.83,3.26-2.74,4.91
					c0,0,0,0-0.01,0c-0.08,0.15-0.16,0.3-0.24,0.44c-0.93,1.68-1.85,3.37-2.75,5.06c-0.07,0.13-0.14,0.26-0.21,0.39
					c-0.85,1.59-1.68,3.18-2.5,4.78c-0.16,0.31-0.32,0.62-0.47,0.92c-0.84,1.65-1.66,3.32-2.46,4.99c-0.16,0.34-0.32,0.68-0.49,1.03
					c-0.82,1.73-1.62,3.47-2.39,5.22c0,0,0,0,0,0c0,0.01-0.01,0.02-0.01,0.02c-0.72,2.49-1.46,4.97-2.21,7.45
					c-0.15,0.5-0.31,1.01-0.47,1.51c-0.74,2.39-1.49,4.78-2.27,7.15c-0.04,0.19-0.09,0.39-0.13,0.58c-0.13,0.59-0.33,1.1-0.58,1.55
					c-3.36,10.03-7.14,19.91-11.55,29.54c-7.18,15.67-17.8,29.52-27.51,43.66c-8.86,12.9-19.28,24.62-31.1,34.87
					c-6.04,5.24-11.18,11.9-17.88,16.36c-0.84,0.56-1.67,1.11-2.51,1.67c-7.47,8.41-15.37,16.42-23.94,23.59
					c-1.55,1.69-3.12,3.35-4.74,4.98c-4.69,4.7-9.83,8.9-14.82,13.27c2.33-0.31,4.67-0.53,7.01-0.71c1.28-0.69,2.55-1.4,3.81-2.12
					c0.27,0.05,0.58,0.08,0.9,0.08c-1.07,0.64-2.15,1.27-3.21,1.92c4.22-0.33,8.44-0.64,12.63-1.43c9.21-1.74,18.75-1.85,28.03-3.4
					c17.18-2.86,34.25-6.91,51.57-8.75c8.5-0.9,16.97-1.95,25.49-2.48c9.11-0.56,18.09-1.55,27.16-2.34
					c17.29-1.51,34.61-3.37,51.79-5.85c10.51-1.52,20.9-3.19,31.32-3.51c0.67-0.17,1.34-0.33,2.01-0.51
					c2.67-0.7,5.35-0.72,8.06-1.24c5.76-1.1,10.99-2.85,16.46-4.93c9.77-3.72,19.45-7.34,28.35-12.94
					c4.49-2.83,9.28-4.83,13.91-7.36c4.6-2.51,8.67-6.15,12.24-9.99c1.96-2.11,4.45-3.44,6.53-5.4c2.02-1.91,3.8-4.07,5.7-6.09
					c2.24-2.4,4.09-5.45,6.29-8.05c0.31-0.92,0.64-1.82,1.01-2.69c0.32-0.75,0.67-1.5,1.03-2.26c0,0,0,0,0,0
					c1.04-2.18,2.26-4.34,3.54-6.42c0.06-0.09,0.12-0.19,0.18-0.28c0.41-0.66,0.83-1.3,1.25-1.94c0,0,0,0,0,0
					c0.36-0.55,0.73-1.09,1.1-1.61c0.31-0.44,0.67-0.81,1.06-1.12c0.72-1.53,1.47-3.04,2.13-4.59c0.03-0.67,0.02-1.35-0.01-2.02
					C1896.42,1143.68,1899.28,1129.67,1899.28,1115z"/>
			</g>
		</g>
		<g>
			<g>
				<g>
					<path class="st0" d="M1541.22,1267.4c0.17-0.09,0.34-0.18,0.51-0.27c-0.95,0.21-1.9,0.42-2.86,0.61L1541.22,1267.4z"/>
					<path class="st0" d="M1796.29,1177.57c0.23-0.26,0.43-0.53,0.59-0.85C1796.69,1177.02,1796.49,1177.3,1796.29,1177.57z"/>
					<path class="st0" d="M1799.61,1124.43c10.99-11.88,20.61-24.92,28.17-39.24c3.22-6.11,6.12-12.72,5.81-19.61
						c-12.41,17.16-24.92,34.42-39.11,50.08c-0.4-1.86-0.77-3.72-1.11-5.59c-4.25-23.89-1.33-49.01,8.28-71.29
						c-3.23-0.51-5.58,2.89-6.98,5.84c-12.97,27.35-18.94,57.96-17.28,88.18c-0.35,0.31-0.68,0.63-1.03,0.94
						c-12.93,11.51-27.21,21.28-42.06,30.2c-0.91-2.45-1.13-5.2-1.22-7.85c-0.78-22.12,4.01-44.42,13.79-64.27
						c-10.45,10.39-16.99,24.21-20.61,38.49c-3.39,13.38-4.35,27.24-4.74,41.05c-9.15,5.15-18.43,10.08-27.67,14.99
						c-8.73,4.64-17.46,9.27-26.2,13.91c0.66-6.67,3.45-13.06,6.53-19.07c4.64-9.07,10.01-17.77,16.05-25.99
						c-12.29,3.27-21.71,13.5-27.45,24.84c-4.23,8.36-6.84,17.54-7.66,26.87c-37.8,20.07-75.6,40.13-113.4,60.2
						c16.14-3.64,31.26-10.93,46.18-18.16c25.02-12.12,50.05-24.25,75.07-36.37c14.41,9.25,33.03,11.68,49.3,6.33
						c-6.97,1.68-14.17-1.07-20.75-3.9c-5.83-2.51-11.61-5.13-17.35-7.86c18.63-9.05,37.22-18.28,55.12-28.63l-0.58,0.61
						c15.99,9.51,36.04,10.55,54.05,5.86c5.07-1.32,10.38-3.32,13.51-7.44c-1.32,1.5-3.57,2.06-5.62,2.39
						c-17.41,2.77-35.63,0.19-51.62-7.23c6.23-3.82,12.37-7.8,18.38-11.99c10.24-7.15,20.1-14.97,29.31-23.45
						c18.59,10.77,41.04,14.72,62.19,10.9c8.2-1.48,16.36-4.17,22.93-9.29C1847.14,1144.09,1820.42,1138.7,1799.61,1124.43z"/>
				</g>
			</g>
		</g>
		<g>
			<g>
				<path class="st2" d="M1587.21,1151.07c-0.12-1.06,0.1-2.07,0.05-3.12c-0.05-1.02-0.23-2.04-0.34-3.06
					c-0.13-1.2-0.55-2.46-0.75-3.7c-0.18-0.31-0.36-0.62-0.51-0.93c-0.15-0.31-0.29-0.63-0.43-0.95c-0.22-0.52-0.44-1.05-0.63-1.59
					c-0.01-0.02-0.01-0.04-0.02-0.07c-0.18-0.51-0.34-1.02-0.48-1.52c-0.08-0.29-0.17-0.59-0.25-0.87
					c-0.05-0.19-0.07-0.38-0.06-0.57c-0.25-0.57-0.5-1.15-0.78-1.71c-0.19-0.18-0.39-0.34-0.59-0.5c-2.36-4.55-5.58-8.75-9.7-12.31
					c-17.21-14.93-43.08-13.28-57.8,3.67c-8.95,10.31-11.71,23.91-8.63,36.34c0.24,0.65,0.48,1.3,0.72,1.95c0,0,0,0.01,0,0.01
					c0.04,0.12,0.09,0.24,0.14,0.36c0.11,0.29,0.22,0.59,0.34,0.88c0.21,0.55,0.42,1.1,0.64,1.65c0.12,0.31,0.24,0.62,0.37,0.92
					c0.23,0.56,0.46,1.12,0.7,1.68c0.12,0.27,0.23,0.54,0.35,0.81c0.35,0.81,0.72,1.61,1.1,2.4c0.01,0.01,0.01,0.02,0.02,0.04
					c0,0,0,0,0,0c0,0,0,0.01,0,0.01c0.06,0.08,0.11,0.17,0.16,0.25c0.67,1.03,1.33,2.07,1.98,3.11c0.4,0.64,0.8,1.28,1.19,1.93
					c0.04,0.06,0.09,0.12,0.13,0.18c0.13,0.18,0.23,0.36,0.3,0.54c2.01,3.37,3.87,6.82,5.52,10.39c2.68,5.8,4.01,12.11,5.65,18.24
					c1.49,5.59,2.28,11.33,2.32,17.1c0.02,2.95,0.66,5.99,0.3,8.93c-0.04,0.37-0.09,0.73-0.14,1.1c0.57,4.12,0.92,8.25,0.88,12.37
					c0.1,0.84,0.19,1.68,0.26,2.52c0.19,2.44,0.14,4.89,0.17,7.33c0.47-0.72,0.97-1.42,1.48-2.11c0.11-0.52,0.22-1.05,0.32-1.57
					c0.08-0.06,0.16-0.14,0.24-0.23c-0.08,0.45-0.16,0.9-0.23,1.35c0.92-1.25,1.85-2.49,2.63-3.84c1.72-2.97,3.98-5.64,5.77-8.58
					c3.32-5.45,6.28-11.16,9.92-16.4c1.79-2.57,3.52-5.17,5.42-7.65c2.03-2.66,3.91-5.38,5.86-8.08
					c3.73-5.15,7.36-10.39,10.79-15.75c2.1-3.28,4.12-6.56,6.53-9.52c0.11-0.23,0.23-0.45,0.34-0.68c0.44-0.91,1.08-1.66,1.59-2.53
					c1.07-1.86,1.84-3.73,2.57-5.75c1.3-3.61,2.61-7.17,3.17-11c0.28-1.93,0.87-3.74,1.27-5.64
					C1587.48,1155,1587.43,1152.99,1587.21,1151.07z"/>
			</g>
		</g>
		<g>
			<g>
				<g>
					<path class="st0" d="M1529.55,1256.32c0.02-0.09,0.04-0.18,0.06-0.27c-0.18,0.33-0.34,0.67-0.53,1L1529.55,1256.32z"/>
					<path class="st0" d="M1565.57,1164c-0.01-0.16-0.04-0.32-0.1-0.48C1565.51,1163.68,1565.54,1163.84,1565.57,1164z"/>
					<path class="st0" d="M1569.95,1142.17c1.55-2.63,2.76-5.54,2.9-8.6c-4.47,8.1-12.4,14.17-21.4,16.45
						c-0.7-5.93-2.05-11.76-4.25-17.34c-0.94-2.38-2.1-4.79-4.11-6.38c1.84,7.61,3.67,15.27,4.66,23.01
						c-0.61-0.34-1.22-0.69-1.82-1.05c-7.72-4.64-14.07-11.57-18.02-19.65c-0.92,0.77-0.53,2.25-0.04,3.35
						c4.56,10.24,11.72,19.35,20.59,26.25c0,0.17,0.02,0.35,0.02,0.52c0.13,6.38-0.56,12.71-1.62,18.99
						c-0.91-0.35-1.73-0.96-2.5-1.57c-6.4-5.17-11.5-11.93-14.73-19.47c0.41,5.42,2.72,10.6,5.86,15.08
						c2.94,4.2,6.6,7.83,10.38,11.3c-0.75,3.79-1.59,7.55-2.44,11.31c-0.79,3.54-1.59,7.09-2.38,10.63
						c-1.71-1.81-2.84-4.13-3.79-6.45c-1.43-3.49-2.58-7.1-3.44-10.77c-2.03,4.2-1.42,9.29,0.38,13.64c1.33,3.21,3.28,6.16,5.7,8.66
						c-3.44,15.32-6.87,30.65-10.31,45.97c2.84-5.34,4.43-11.27,5.97-17.13c2.6-9.87,5.21-19.75,7.81-29.62
						c6.05-1.73,11.21-6.29,13.61-12.1c-1.2,2.34-3.7,3.66-6.08,4.79c-2.1,1-4.23,1.95-6.37,2.87c1.93-7.37,3.8-14.77,5.19-22.26
						l0.04,0.36c6.51-2.11,11.61-7.4,14.62-13.52c0.83-1.69,1.52-3.6,1.16-5.44c0.05,0.69-0.31,1.41-0.69,2.03
						c-3.4,5.49-8.51,9.88-14.43,12.49c0.42-2.65,0.79-5.31,1.05-7.98c0.45-4.57,0.63-9.21,0.45-13.82
						C1559.45,1154.2,1565.94,1148.95,1569.95,1142.17z"/>
				</g>
			</g>
		</g>
	</g>
</g>
<g id="Layer_8_copy_3">
	<g>
		<g>
			<g>
				<path class="st2" d="M379.77,1015.57c-18.64-14.17-42.52-18.03-63.93-12.37c-1.11,0.42-2.22,0.85-3.33,1.28c0,0-0.01,0-0.01,0
					c-0.2,0.08-0.41,0.16-0.61,0.24c-0.51,0.2-1.01,0.4-1.52,0.6c-0.94,0.37-1.88,0.75-2.82,1.13c-0.53,0.22-1.05,0.43-1.58,0.65
					c-0.97,0.4-1.92,0.82-2.88,1.24c-0.46,0.2-0.92,0.4-1.38,0.61c-1.38,0.62-2.74,1.25-4.09,1.92c-0.02,0.01-0.04,0.02-0.06,0.03
					c0,0,0,0,0,0c0,0-0.01,0-0.01,0.01c-0.14,0.09-0.29,0.19-0.43,0.28c-1.74,1.15-3.5,2.29-5.27,3.41
					c-1.08,0.69-2.17,1.38-3.26,2.05c-0.1,0.07-0.2,0.15-0.3,0.22c-0.3,0.23-0.61,0.39-0.92,0.51c-5.72,3.46-11.58,6.69-17.66,9.56
					c-9.9,4.67-20.78,7.17-31.33,10.16c-9.62,2.72-19.54,4.3-29.58,4.65c-5.13,0.18-10.38,1.37-15.52,0.93
					c-0.64-0.05-1.28-0.11-1.93-0.17c-7.12,1.13-14.29,1.91-21.46,2.04c-1.45,0.21-2.91,0.4-4.37,0.55
					c-4.24,0.43-8.5,0.46-12.75,0.63c1.29,0.74,2.55,1.53,3.79,2.33c0.92,0.16,1.84,0.31,2.76,0.45c0.11,0.13,0.26,0.25,0.42,0.38
					c-0.79-0.11-1.58-0.22-2.38-0.32c2.24,1.45,4.48,2.91,6.89,4.12c5.3,2.68,10.12,6.25,15.38,9.05
					c9.74,5.18,19.91,9.76,29.31,15.47c4.61,2.8,9.27,5.53,13.74,8.52c4.78,3.2,9.67,6.14,14.52,9.22
					c9.25,5.86,18.66,11.56,28.25,16.92c5.86,3.28,11.73,6.44,17.07,10.25c0.4,0.17,0.8,0.35,1.21,0.52
					c1.62,0.68,2.96,1.69,4.53,2.48c3.32,1.67,6.64,2.83,10.21,3.93c6.38,1.96,12.68,3.93,19.38,4.67c3.38,0.37,6.59,1.25,9.92,1.81
					c3.31,0.56,6.81,0.39,10.14-0.06c1.83-0.25,3.61,0.07,5.44-0.07c1.77-0.13,3.54-0.48,5.3-0.71c2.09-0.28,4.24-1.02,6.38-1.41
					c0.52-0.31,1.05-0.62,1.59-0.89c0.52-0.26,1.07-0.51,1.62-0.76c0.89-0.39,1.8-0.77,2.73-1.11c0.04-0.01,0.08-0.03,0.11-0.04
					c0.87-0.32,1.74-0.6,2.61-0.86c0.5-0.15,1.01-0.31,1.5-0.45c0.33-0.09,0.66-0.13,0.98-0.13c0.97-0.45,1.96-0.88,2.91-1.36
					c0.3-0.32,0.57-0.65,0.83-1c7.73-4.09,14.8-9.59,20.7-16.51C415.27,1081.23,410.42,1038.88,379.77,1015.57z"/>
			</g>
		</g>
		<g>
			<g>
				<g>
					<path class="st0" d="M377.64,1061.87c-13.11,3.39-26.31,6.78-39.71,8.78c0.55-1.03,1.11-2.05,1.7-3.06
						c7.49-12.9,19.06-23.65,32.83-30.51c-1.41-1.47-3.95-0.76-5.84,0.11c-17.49,7.98-32.79,20.17-44.13,35.06
						c-0.3,0.02-0.6,0.04-0.89,0.05c-11.1,0.52-22.17-0.29-33.18-1.72c0.53-1.5,1.53-2.88,2.55-4.17
						c8.51-10.74,19.88-19.45,32.76-25.1c-9.4,0.94-18.24,4.97-25.79,10.34c-7.08,5.03-13.13,11.21-18.88,17.58
						c-6.65-1.04-13.27-2.24-19.88-3.44c-6.23-1.13-12.46-2.26-18.69-3.39c3.01-2.9,6.98-4.86,10.93-6.53
						c5.97-2.52,12.16-4.59,18.48-6.17c-7.46-3.13-16.28-1.88-23.72,1.3c-5.48,2.34-10.48,5.68-14.64,9.78
						c-26.97-4.89-53.95-9.79-80.92-14.68c9.53,4.42,20.03,6.72,30.39,8.98c17.39,3.79,34.78,7.58,52.17,11.36
						c3.48,9.84,11.81,18.07,22.1,21.73c-4.16-1.86-6.65-5.89-8.8-9.73c-1.9-3.4-3.72-6.84-5.49-10.3
						c12.95,2.81,25.95,5.51,39.06,7.43l-0.53,0.07c4.17,10.57,13.78,18.68,24.66,23.31c3.01,1.28,6.39,2.31,9.56,1.64
						c-1.21,0.12-2.48-0.43-3.58-1.03c-9.82-5.31-17.89-13.45-22.89-23.03c4.65,0.57,9.32,1.02,14.01,1.32
						c8,0.52,16.07,0.57,24.09,0.06c4.96,12.15,14.59,22.55,26.7,28.78c4.69,2.42,9.86,4.25,15.2,4.33
						c-14.44-6.94-25.61-19.64-30.27-34.29c10.27-1.43,20.32-3.93,29.86-7.82C370.91,1067.26,375.02,1065.24,377.64,1061.87z"/>
					<path class="st0" d="M150.25,1046.04c0.12,0.02,0.24,0.04,0.36,0.07c-0.56-0.26-1.12-0.52-1.67-0.8L150.25,1046.04z"/>
					<path class="st0" d="M313.73,1100.59c0.28-0.03,0.56-0.08,0.83-0.19C314.29,1100.48,314.01,1100.53,313.73,1100.59z"/>
				</g>
			</g>
		</g>
		<g>
			<g>
				<path class="st2" d="M225.26,988.49c-2.59-13.59-16.19-22.65-30.37-20.23c-8.62,1.47-15.48,6.84-18.94,13.88
					c-0.14,0.4-0.28,0.79-0.42,1.19c0,0,0,0,0,0c-0.01,0.04-0.03,0.08-0.04,0.12c-0.28,0.79-0.54,1.59-0.8,2.39
					c-0.05,0.16-0.1,0.32-0.15,0.49c-0.26,0.84-0.5,1.68-0.71,2.53c0,0,0,0,0,0c0,0,0,0,0,0.01c-0.13,1.26-0.28,2.51-0.46,3.77
					c0,0.04,0,0.09-0.01,0.13c-0.01,0.14-0.03,0.26-0.07,0.37c-0.35,2.35-0.81,4.69-1.42,7c-1,3.76-2.87,7.24-4.52,10.76
					c-1.5,3.21-3.42,6.22-5.72,8.95c-1.18,1.4-2.08,3.08-3.44,4.33c-0.17,0.16-0.34,0.31-0.51,0.47c-1.37,2.16-2.86,4.24-4.54,6.17
					c-0.29,0.43-0.58,0.87-0.89,1.29c-0.89,1.23-1.9,2.36-2.87,3.52c0.53-0.16,1.06-0.3,1.59-0.43c0.27-0.2,0.53-0.41,0.79-0.62
					c0.06,0,0.14-0.01,0.21-0.02c-0.22,0.18-0.44,0.37-0.66,0.55c0.96-0.24,1.93-0.47,2.86-0.81c2.06-0.75,4.26-1.15,6.34-1.86
					c3.85-1.31,7.63-2.88,11.56-3.97c1.93-0.53,3.84-1.1,5.79-1.55c2.08-0.48,4.12-1.06,6.18-1.59c3.94-1.01,7.86-2.11,11.73-3.34
					c2.37-0.75,4.7-1.53,7.1-2.01c0.15-0.06,0.3-0.13,0.44-0.19c0.59-0.26,1.21-0.37,1.81-0.59c1.29-0.47,2.42-1.06,3.6-1.74
					c2.1-1.21,4.19-2.39,6.01-3.99c0.92-0.8,1.94-1.44,2.91-2.18c0.96-0.74,1.74-1.7,2.41-2.7c0.36-0.54,0.88-0.94,1.28-1.45
					c0.39-0.5,0.71-1.05,1.06-1.58c0.42-0.62,0.72-1.37,1.11-2.03c0.03-0.22,0.07-0.43,0.12-0.64c0.05-0.2,0.11-0.41,0.17-0.61
					c0.1-0.33,0.21-0.66,0.33-0.99c0.01-0.01,0.01-0.03,0.02-0.04c0.12-0.31,0.24-0.61,0.37-0.9c0.08-0.17,0.15-0.34,0.23-0.51
					c0.05-0.11,0.12-0.21,0.2-0.29c0.1-0.37,0.21-0.73,0.3-1.1c-0.02-0.16-0.06-0.31-0.09-0.46
					C225.8,994.95,225.88,991.74,225.26,988.49z"/>
			</g>
		</g>
		<g>
			<g>
				<g>
					<path class="st0" d="M148.87,1036.37c0.05-0.03,0.09-0.07,0.14-0.1c-0.22,0.09-0.44,0.19-0.67,0.27L148.87,1036.37z"/>
					<path class="st0" d="M202.61,994.49c2.03-3.06,3.71-6.33,4.85-9.79c0.49-1.48,0.88-3.06,0.51-4.58
						c-2.14,4.29-4.31,8.6-6.93,12.63c-0.17-0.39-0.33-0.79-0.49-1.19c-1.99-5.13-2.38-10.81-1.1-16.13
						c-0.77,0.01-1.17,0.86-1.37,1.57c-1.84,6.57-1.91,13.57-0.25,20.2c-0.07,0.09-0.14,0.18-0.21,0.27
						c-2.5,3.06-5.4,5.78-8.45,8.35c-0.31-0.51-0.48-1.1-0.61-1.69c-1.12-4.87-0.95-10,0.47-14.79c-1.98,2.71-2.91,6.04-3.14,9.34
						c-0.22,3.1,0.15,6.2,0.64,9.28c-1.9,1.5-3.83,2.97-5.77,4.42c-1.82,1.37-3.65,2.74-5.47,4.11c-0.13-1.5,0.24-3.03,0.7-4.48
						c0.69-2.19,1.56-4.33,2.61-6.39c-2.7,1.21-4.45,3.85-5.3,6.59c-0.62,2.02-0.82,4.14-0.61,6.24
						c-7.89,5.93-15.79,11.87-23.68,17.8c3.57-1.44,6.75-3.64,9.88-5.82c5.28-3.68,10.56-7.35,15.84-11.03
						c3.72,1.48,8.13,1.3,11.66-0.53c-1.54,0.65-3.32,0.32-4.97-0.05c-1.45-0.33-2.9-0.69-4.34-1.06c3.93-2.74,7.84-5.53,11.55-8.54
						l-0.13,0.18c4.1,1.48,8.78,0.92,12.75-0.83c1.19-0.52,2.41-1.23,2.91-2.39c-0.17,0.52-0.76,0.78-1.3,0.96
						c-3.91,1.3-8.23,1.43-12.24,0.42c1.28-1.09,2.53-2.2,3.74-3.37c2.07-1.99,4.02-4.11,5.79-6.35c4.76,1.66,10.12,1.65,14.85-0.03
						c1.83-0.65,3.61-1.57,4.91-2.96C214.43,996.99,208.03,996.83,202.61,994.49z"/>
				</g>
			</g>
		</g>
	</g>
</g>
<g id="Layer_8_copy">
	<g>
		<g>
			<g>
				<path class="st2" d="M823.69,1230.86c0.11-3.4-0.27-6.59-0.83-9.95c-1-6-1.95-11.95-4.29-17.7c-1.18-2.9-1.79-5.87-2.75-8.81
					c-0.96-2.92-2.72-5.68-4.68-8.19c-1.08-1.38-1.58-2.95-2.54-4.38c-0.94-1.38-2.07-2.67-3.1-3.99c-1.22-1.57-2.92-3-4.28-4.57
					c-0.54-0.29-1.08-0.59-1.59-0.91c-0.53-0.33-1.05-0.69-1.57-1.06c-0.22-0.15-0.44-0.31-0.65-0.47
					c-0.37-0.27-0.73-0.55-1.09-0.83c-0.16-0.12-0.31-0.24-0.47-0.36c-0.49-0.4-0.97-0.8-1.44-1.21c-0.16-0.14-0.32-0.28-0.48-0.42
					c-0.46-0.41-0.91-0.82-1.33-1.23c-0.24-0.23-0.42-0.48-0.57-0.74c-0.88-0.6-1.74-1.21-2.64-1.78c-0.44-0.11-0.89-0.18-1.35-0.25
					c-7.5-4.53-16.06-7.91-25.48-9.75c-39.39-7.68-78.4,14.28-87.11,49.03c-5.3,21.14,1.82,42.14,17.07,57.08
					c0.91,0.72,1.84,1.44,2.76,2.16c0,0,0,0.01,0.01,0.01c0.17,0.13,0.35,0.26,0.52,0.4c0.42,0.32,0.84,0.64,1.26,0.96
					c0.79,0.61,1.59,1.21,2.39,1.81c0.45,0.33,0.9,0.67,1.35,1c0.83,0.61,1.67,1.21,2.52,1.81c0.41,0.29,0.81,0.58,1.22,0.87
					c1.23,0.85,2.47,1.69,3.72,2.5c0.02,0.01,0.04,0.03,0.06,0.04c0,0,0,0,0,0c0,0,0.01,0.01,0.01,0.01
					c0.16,0.07,0.31,0.15,0.46,0.23c1.92,0.92,3.82,1.86,5.72,2.82c1.16,0.59,2.32,1.17,3.48,1.77c0.12,0.05,0.24,0.1,0.35,0.15
					c0.36,0.15,0.66,0.33,0.92,0.52c5.97,3.16,11.78,6.54,17.34,10.24c9.05,6.03,16.44,13.79,24.14,21.07
					c7.03,6.64,13.08,14.01,17.99,22c2.51,4.08,6.06,7.83,7.97,12.19c0.24,0.54,0.48,1.09,0.71,1.63
					c4.34,5.29,8.37,10.77,11.76,16.53c0.86,1.09,1.71,2.19,2.52,3.31c2.35,3.25,4.32,6.69,6.42,10.06
					c0.13-1.36,0.33-2.72,0.54-4.06c-0.26-0.81-0.54-1.62-0.82-2.43c0.07-0.15,0.13-0.32,0.18-0.5c0.26,0.69,0.51,1.38,0.78,2.06
					c0.39-2.44,0.79-4.87,0.88-7.34c0.19-5.44,1.47-10.86,1.8-16.32c0.61-10.1,0.43-20.29,1.71-30.34
					c0.63-4.93,1.16-9.86,2.03-14.76c0.94-5.24,1.58-10.45,2.36-15.69c1.49-9.99,2.76-20.04,3.61-30.1
					c0.52-6.15,0.92-12.25,2.2-18.2c-0.01-0.4-0.02-0.8-0.04-1.2C823.27,1233.98,823.63,1232.46,823.69,1230.86z"/>
			</g>
		</g>
		<g>
			<g>
				<g>
					<path class="st0" d="M804.37,1347.58c-4.23-15.71-8.46-31.41-12.69-47.12c7.99-7.01,12.2-17.26,11.08-27.16
						c0.09,4.16-2.7,7.9-5.46,11.28c-2.44,2.99-4.96,5.93-7.52,8.83c-3.17-11.69-6.45-23.38-10.56-34.82l0.31,0.4
						c8.39-7.87,11.9-19.11,11.45-29.91c-0.12-2.98-0.66-6.16-2.75-8.45c0.67,0.93,0.71,2.2,0.63,3.34
						c-0.7,10.22-4.94,20.22-11.99,28.36c-1.57-4.01-3.25-7.99-5.09-11.92c-3.14-6.7-6.76-13.27-10.9-19.55
						c9.57-9.19,15.29-21.43,15.85-33.89c0.22-4.83-0.35-9.8-2.71-14.16c-0.18,14.65-7.45,29.12-19.58,39.13
						c-6.07-7.71-13.08-14.8-21.2-20.87c-3.47-2.59-7.3-5.06-11.78-5.75c9.26,9.18,18.58,18.44,26.62,28.44
						c-1.25-0.01-2.5-0.03-3.75-0.07c-15.96-0.58-31.68-5.38-44.63-13.62c-0.79,1.77,1.06,3.53,2.76,4.69
						c15.73,10.78,34.55,18,54.2,20.84c0.15,0.24,0.31,0.47,0.46,0.7c5.56,8.77,9.8,18.09,13.43,27.63
						c-1.71,0.21-3.5-0.01-5.22-0.29c-14.33-2.33-27.97-7.83-39.34-15.87c5.19,7.22,13.14,12.67,21.8,16.5
						c8.12,3.6,16.89,5.87,25.7,7.82c2.01,5.83,3.86,11.71,5.7,17.57c1.74,5.53,3.47,11.06,5.21,16.59
						c-4.19-1.21-7.9-3.59-11.33-6.09c-5.17-3.77-10-7.9-14.42-12.35c0.35,7.38,5.59,14,12.06,18.67c4.77,3.45,10.3,6.08,16.18,7.71
						c7.52,23.94,15.04,47.89,22.56,71.83C809.43,1366.43,806.89,1356.94,804.37,1347.58z"/>
					<path class="st0" d="M809.57,1376.36c-0.03-0.11-0.07-0.22-0.1-0.32c0,0.57,0,1.13-0.02,1.7L809.57,1376.36z"/>
					<path class="st0" d="M787.66,1220.05c0.21,0.19,0.38,0.39,0.57,0.59C788.07,1220.43,787.89,1220.22,787.66,1220.05z"/>
				</g>
			</g>
		</g>
		<g>
			<g>
				<path class="st2" d="M798.7,1380.39c-0.32-0.13-0.64-0.26-0.96-0.38c-0.03-0.05-0.07-0.11-0.11-0.16c0.28,0.1,0.56,0.2,0.84,0.3
					c-0.67-0.68-1.34-1.36-2.09-1.97c-1.66-1.35-3.06-2.96-4.69-4.35c-3.03-2.57-6.28-4.96-9.13-7.68c-1.4-1.33-2.82-2.65-4.15-4.03
					c-1.42-1.48-2.9-2.89-4.36-4.34c-2.78-2.76-5.63-5.47-8.59-8.09c-1.81-1.6-3.63-3.16-5.19-4.9c-0.13-0.09-0.26-0.19-0.39-0.28
					c-0.52-0.37-0.91-0.82-1.4-1.22c-1.04-0.84-2.14-1.51-3.33-2.18c-2.13-1.19-4.24-2.38-6.61-3.18c-1.2-0.4-2.28-0.96-3.44-1.43
					c-1.15-0.46-2.45-0.69-3.72-0.81c-0.7-0.06-1.31-0.32-2-0.42c-0.66-0.1-1.35-0.13-2.02-0.19c-0.79-0.08-1.66,0-2.48-0.04
					c-0.22,0.06-0.45,0.13-0.67,0.17c-0.51,0.11-1.04,0.19-1.58,0.25c-0.06,0.01-0.12,0.02-0.18,0.03c-0.58,0.06-1.15,0.1-1.7,0.12
					c-0.13,0-0.25-0.01-0.37-0.04c-0.4,0.07-0.81,0.14-1.21,0.23c-0.14,0.08-0.28,0.18-0.41,0.27c-3.26,0.77-6.41,2.07-9.29,3.96
					c-12.04,7.89-14.66,22.76-5.86,33.23c5.35,6.36,13.7,9.63,22.13,9.44c0.45-0.05,0.9-0.11,1.35-0.17c0,0,0,0,0,0
					c0.04-0.01,0.09-0.01,0.13-0.02c0.9-0.11,1.79-0.23,2.69-0.37c0.18-0.03,0.36-0.06,0.55-0.09c0.93-0.15,1.86-0.31,2.78-0.5
					c0,0,0,0,0,0c0,0,0,0,0.01,0c1.28-0.43,2.57-0.84,3.88-1.23c0.04-0.02,0.09-0.03,0.13-0.05c0.13-0.05,0.26-0.09,0.39-0.1
					c2.45-0.72,4.94-1.34,7.46-1.83c4.11-0.79,8.35-0.76,12.53-0.92c3.81-0.15,7.6,0.12,11.32,0.82c1.9,0.36,3.94,0.38,5.78,0.95
					c0.23,0.07,0.46,0.14,0.69,0.21c2.73,0.19,5.43,0.51,8.07,1.05c0.55,0.05,1.11,0.1,1.66,0.17c1.6,0.2,3.16,0.53,4.73,0.82
					C799.45,1381.13,799.07,1380.76,798.7,1380.39z"/>
			</g>
		</g>
		<g>
			<g>
				<g>
					<path class="st0" d="M800.8,1381.59c-0.05-0.02-0.11-0.05-0.16-0.07c0.19,0.14,0.38,0.28,0.57,0.43L800.8,1381.59z"/>
					<path class="st0" d="M800.63,1381.52c-3.03-2.28-6.61-3.92-10.16-5.53c-5.98-2.72-11.96-5.43-17.94-8.15
						c-0.26-3.65-2.44-7.14-5.82-9.23c1.33,0.97,1.82,2.56,2.21,4.05c0.34,1.32,0.65,2.64,0.94,3.97c-4.46-2.02-8.95-4-13.57-5.73
						l0.24,0.02c-0.43-3.95-3.11-7.51-6.61-9.98c-1.05-0.74-2.3-1.43-3.65-1.34c0.58-0.09,1.11,0.28,1.53,0.64
						c3.04,2.62,5.14,6.06,5.98,9.74c-1.64-0.57-3.3-1.11-4.98-1.6c-2.88-0.83-5.83-1.5-8.82-1.98c-0.55-4.56-3-8.9-6.79-12.02
						c-1.47-1.21-3.17-2.26-5.12-2.72c4.57,3.55,7.34,8.81,7.53,14.2c-3.91-0.35-7.85-0.32-11.75,0.23
						c-1.66,0.24-3.38,0.59-4.69,1.53c5.14-0.09,10.32-0.17,15.43,0.24c-0.3,0.3-0.6,0.61-0.91,0.9c-4.08,3.8-9.43,6.53-15.19,7.76
						c0.36,0.62,1.37,0.58,2.15,0.44c7.23-1.3,14.08-4.23,19.77-8.39c0.12,0.02,0.24,0.03,0.36,0.06c4.12,0.73,8.08,1.91,11.97,3.3
						c-0.35,0.47-0.86,0.86-1.36,1.22c-4.23,2.98-9.3,5.03-14.6,5.91c3.54,0.45,7.2-0.21,10.52-1.43c3.11-1.14,5.96-2.76,8.73-4.47
						c2.33,0.9,4.64,1.85,6.93,2.8c2.16,0.89,4.33,1.79,6.49,2.68c-1.4,0.75-3.06,1.09-4.68,1.34c-2.45,0.37-4.93,0.58-7.41,0.6
						c2.41,1.68,5.77,1.97,8.82,1.49c2.24-0.35,4.4-1.1,6.35-2.16C781.9,1373.78,791.27,1377.65,800.63,1381.52z"/>
				</g>
			</g>
		</g>
	</g>
</g>
<g id="Layer_8_copy_2">
	<g>
		<g>
			<g>
				<path class="st2" d="M761.1,593.19c-0.47,0.71-0.92,1.44-1.37,2.16c-0.16,0.04-0.33,0.1-0.5,0.17c0.37-0.63,0.75-1.26,1.11-1.9
					c-2.14,1.23-4.28,2.46-6.25,3.94c-4.34,3.28-9.36,5.7-13.81,8.89c-8.22,5.89-16.02,12.45-24.63,17.79
					c-4.22,2.62-8.39,5.32-12.74,7.72c-4.66,2.57-9.11,5.36-13.67,8.06c-8.7,5.14-17.3,10.49-25.64,16.17
					c-5.1,3.47-10.09,7-15.51,9.76c-0.3,0.26-0.61,0.52-0.91,0.79c-1.2,1.07-2.61,1.74-3.89,2.71c-2.71,2.06-4.94,4.36-7.2,6.91
					c-4.03,4.56-8.05,9.04-11.04,14.48c-1.51,2.74-3.43,5.08-5.11,7.69c-1.66,2.59-2.7,5.69-3.41,8.79c-0.39,1.7-1.3,3.08-1.8,4.73
					c-0.48,1.6-0.76,3.29-1.14,4.93c-0.45,1.94-0.49,4.16-0.85,6.2c0.12,0.61,0.22,1.21,0.3,1.8c0.08,0.62,0.13,1.25,0.17,1.89
					c0.02,0.27,0.03,0.54,0.05,0.8c0.02,0.46,0.04,0.91,0.04,1.37c0,0.2,0.01,0.39,0.01,0.59c0,0.63-0.01,1.26-0.03,1.88
					c-0.01,0.21-0.02,0.42-0.03,0.63c-0.03,0.61-0.06,1.22-0.11,1.81c-0.03,0.33-0.11,0.63-0.22,0.91c0.09,1.06,0.16,2.12,0.28,3.18
					c0.19,0.39,0.4,0.77,0.62,1.14c1.2,8.69,4,17.5,8.52,25.98c18.87,35.42,60.49,51.87,92.97,36.73
					c19.75-9.2,31.57-27.97,33.56-49.23c-0.02-1.16-0.04-2.33-0.06-3.5c0,0,0-0.01,0.01-0.01c0-0.22-0.01-0.43-0.02-0.65
					c-0.01-0.53-0.03-1.06-0.04-1.59c-0.03-1-0.06-1.99-0.1-2.99c-0.02-0.56-0.05-1.12-0.07-1.68c-0.05-1.03-0.11-2.06-0.18-3.09
					c-0.03-0.5-0.06-1-0.1-1.5c-0.11-1.49-0.24-2.98-0.41-4.46c0-0.02,0-0.05-0.01-0.07c0,0,0,0,0,0c0-0.01,0-0.01,0-0.02
					c-0.39-1.62-0.76-3.24-1.12-4.86c-0.07-0.33-0.14-0.65-0.22-0.98c-0.35-1.57-0.68-3.13-1-4.7c-0.04-0.12-0.07-0.24-0.11-0.37
					c-0.11-0.37-0.16-0.72-0.17-1.04c-1.31-6.62-2.35-13.27-2.97-19.92c-1.02-10.83,0.35-21.45,1.14-32.02
					c0.73-9.64,2.64-18.98,5.74-27.83c1.59-4.52,2.26-9.64,4.44-13.87c0.27-0.53,0.55-1.06,0.82-1.58
					c1.37-6.71,3.09-13.28,5.42-19.54c0.3-1.36,0.62-2.71,0.98-4.05c1.04-3.87,2.47-7.57,3.77-11.33
					C763.45,591.8,762.28,592.5,761.1,593.19z"/>
			</g>
		</g>
		<g>
			<g>
				<g>
					<path class="st0" d="M765.15,588.72c-0.08,0.12-0.16,0.24-0.24,0.37c0.46-0.38,0.91-0.78,1.38-1.14L765.15,588.72z"/>
					<path class="st0" d="M723.41,651.79c13.83-20.9,27.67-41.8,41.5-62.7c-7.4,6.08-13.16,13.98-18.82,21.81
						c-9.53,13.18-19.06,26.37-28.58,39.55c-10.48-1.78-21.09,1.4-28.07,8.52c3.18-2.69,7.84-2.88,12.2-2.87
						c3.86,0.01,7.73,0.11,11.6,0.27c-7.08,9.83-14.09,19.74-20.38,30.14l0.12-0.5c-11.4-1.55-22.34,2.81-30.44,9.96
						c-2.24,1.97-4.37,4.39-4.82,7.46c0.3-1.1,1.26-1.93,2.2-2.59c8.37-5.9,18.82-8.91,29.57-8.56c-2.13,3.75-4.16,7.56-6.05,11.47
						c-3.22,6.66-6.05,13.61-8.31,20.79c-13.16-1.64-26.27,1.63-36.3,9.05c-3.89,2.88-7.38,6.45-9.29,11.03
						c11.49-9.09,27.3-12.56,42.72-9.46c-2.16,9.57-3.25,19.48-2.84,29.61c0.17,4.32,0.67,8.86,2.96,12.77
						c1.29-12.98,2.61-26.04,5.31-38.6c0.78,0.98,1.55,1.96,2.31,2.96c9.6,12.76,15.79,27.99,17.55,43.24
						c1.87-0.5,2.07-3.05,1.9-5.1c-1.55-19-7.8-38.17-17.98-55.22c0.09-0.27,0.17-0.53,0.26-0.8c3.31-9.85,7.87-19.01,12.99-27.84
						c1.24,1.19,2.2,2.73,3.06,4.23c7.22,12.59,11.55,26.66,12.47,40.54c2.34-8.58,1.55-18.19-0.93-27.33
						c-2.32-8.57-6.08-16.81-10.13-24.89c3.26-5.24,6.66-10.38,10.05-15.5c3.2-4.83,6.4-9.67,9.6-14.5c1.7,4.01,2.19,8.4,2.41,12.63
						c0.33,6.39,0.16,12.74-0.51,18.98c5.51-4.92,7.35-13.16,6.9-21.13C727.29,663.33,725.85,657.38,723.41,651.79z"/>
					<path class="st0" d="M657.71,703.42c-0.07,0.26-0.11,0.52-0.1,0.81C657.62,703.96,657.67,703.69,657.71,703.42z"/>
				</g>
			</g>
		</g>
		<g>
			<g>
				<path class="st2" d="M816.65,642.05c-0.32-0.32-0.65-0.63-0.98-0.95c0,0,0,0,0,0c-0.03-0.03-0.06-0.06-0.09-0.09
					c-0.65-0.62-1.31-1.24-1.98-1.85c-0.14-0.12-0.27-0.24-0.41-0.37c-0.7-0.63-1.41-1.25-2.14-1.84c0,0,0,0,0,0c0,0,0,0,0,0
					c-1.14-0.73-2.28-1.47-3.4-2.23c-0.04-0.02-0.08-0.05-0.12-0.07c-0.13-0.07-0.23-0.15-0.32-0.24c-2.1-1.45-4.15-2.99-6.12-4.64
					c-3.2-2.69-5.85-6.01-8.61-9.15c-2.51-2.86-4.7-5.98-6.49-9.3c-0.92-1.7-2.19-3.3-2.91-5.09c-0.09-0.22-0.18-0.45-0.27-0.67
					c-1.57-2.24-3.03-4.54-4.27-6.93c-0.31-0.46-0.62-0.92-0.91-1.39c-0.85-1.36-1.58-2.79-2.34-4.19
					c-0.03,0.53-0.08,1.06-0.14,1.59c0.1,0.33,0.21,0.66,0.31,0.99c-0.02,0.06-0.04,0.12-0.06,0.19c-0.1-0.28-0.19-0.56-0.29-0.84
					c-0.1,0.95-0.21,1.9-0.21,2.87c0,2.14-0.37,4.24-0.42,6.38c-0.08,3.97,0.11,8-0.21,11.93c-0.16,1.93-0.28,3.86-0.52,5.76
					c-0.26,2.04-0.41,4.07-0.62,6.12c-0.39,3.9-0.7,7.82-0.87,11.77c-0.1,2.41-0.16,4.81-0.53,7.11c0.01,0.16,0.02,0.32,0.03,0.48
					c0.04,0.63-0.06,1.22-0.06,1.85c0,1.34,0.17,2.61,0.41,3.96c0.42,2.41,0.82,4.79,1.7,7.14c0.44,1.19,0.69,2.38,1.06,3.57
					c0.37,1.19,1.01,2.34,1.72,3.39c0.39,0.58,0.58,1.22,0.93,1.82c0.34,0.58,0.75,1.12,1.12,1.68c0.44,0.66,1.05,1.28,1.54,1.95
					c0.19,0.13,0.38,0.27,0.56,0.41c0.17,0.14,0.35,0.29,0.52,0.44c0.28,0.24,0.56,0.5,0.82,0.77c0.01,0.01,0.02,0.02,0.03,0.03
					c0.25,0.25,0.49,0.51,0.73,0.76c0.14,0.15,0.27,0.3,0.4,0.44c0.09,0.1,0.15,0.2,0.21,0.31c0.31,0.27,0.62,0.54,0.94,0.79
					c0.15,0.06,0.31,0.1,0.47,0.14c2.65,2.05,5.65,3.67,8.93,4.72c13.71,4.38,26.91-2.96,29.49-16.39
					C824.83,657.02,822.11,648.48,816.65,642.05z"/>
			</g>
		</g>
		<g>
			<g>
				<g>
					<path class="st0" d="M774.75,592.24c0.02,0.06,0.03,0.11,0.05,0.17c-0.01-0.24-0.03-0.47-0.03-0.71L774.75,592.24z"/>
					<path class="st0" d="M814.93,665.63c0.25-0.67-0.41-1.43-1.01-1.95c-5.57-4.79-12.16-8.26-18.97-10.06
						c-0.06-0.11-0.13-0.21-0.19-0.32c-2.03-3.65-3.61-7.48-4.98-11.37c0.59-0.02,1.21,0.12,1.8,0.29
						c4.98,1.41,9.77,4.05,13.79,7.61c-1.88-3.03-4.7-5.45-7.74-7.27c-2.85-1.7-5.9-2.89-8.97-3.96c-0.77-2.38-1.49-4.76-2.2-7.14
						c-0.67-2.24-1.34-4.49-2.01-6.73c1.46,0.62,2.78,1.69,3.99,2.79c1.83,1.67,3.55,3.46,5.14,5.37c-0.21-2.93-2.11-5.72-4.4-7.79
						c-1.69-1.52-3.63-2.72-5.68-3.57c-2.9-9.71-5.8-19.42-8.69-29.14c0.14,3.78,1.12,7.6,2.11,11.38
						c1.66,6.35,3.32,12.71,4.98,19.06c-2.67,2.5-4,6.39-3.49,10.34c-0.08-1.65,0.83-3.03,1.75-4.27c0.8-1.1,1.65-2.16,2.49-3.22
						c1.24,4.73,2.53,9.46,4.1,14.13l-0.13-0.2c-2.8,2.82-3.87,7.14-3.58,11.42c0.09,1.29,0.34,2.68,1.26,3.68
						c-0.43-0.4-0.48-1.04-0.46-1.59c0.11-4.01,1.47-7.81,3.8-10.78c0.59,1.63,1.21,3.26,1.9,4.87c1.17,2.75,2.51,5.47,4.02,8.1
						c-3.19,3.3-5.02,7.94-5.06,12.85c-0.01,1.9,0.25,3.88,1.11,5.69c-0.12-5.79,2.21-11.26,6.29-14.8c2.19,3.25,4.7,6.3,7.58,8.98
						c1.23,1.14,2.59,2.25,4.14,2.67c-3.32-3.94-6.64-7.92-9.55-12.14c0.43,0.05,0.86,0.1,1.29,0.16
						C804.85,659.5,810.35,661.93,814.93,665.63z"/>
				</g>
			</g>
		</g>
	</g>
</g>
</svg>
