<?xml version="1.0" encoding="utf-8"?>
<!-- Generator: Adobe Adobe Illustrator 24.2.0, SVG Export Plug-In . SVG Version: 6.00 Build 0)  -->
<svg version="1.1" xmlns="http://www.w3.org/2000/svg" xmlns:xlink="http://www.w3.org/1999/xlink" x="0px" y="0px" width="2048px"
	 height="2048px" viewBox="0 0 2048 2048" style="enable-background:new 0 0 2048 2048;" xml:space="preserve">
<style type="text/css">
	.st0{fill:#FFE100;}
	.st1{fill:#FF8800;}
	.st2{fill:#FF4D00;}
	.st3{fill:none;stroke:#0F0D0D;stroke-width:27;stroke-linejoin:round;stroke-miterlimit:10;}
</style>
<g id="Layer_1">
	<g id="Layer_1_copy_2">
		<g>
			<g>
				<path class="st0" d="M1965.86,982c-3.23-18.64-7.63-36.69-12.78-54.33c-1.34-0.43-2.67-0.88-4-1.34
					c-11.16-3.92-21.91-8.94-32.31-14.56c-3.83-2.08-5.43-7.77-3.01-11.47c2.7-4.12,5.12-8.39,7.82-12.51
					c0.85-1.29,1.87-2.21,2.99-2.84c2.33-5.59,4.95-10.99,8.73-15.58c-2.86-7.59-5.79-15.13-8.75-22.63
					c-3.09-2.74-6.21-5.47-9.35-8.16c-7.03-6.02-14.19-11.89-21.46-17.62c-1.12-0.88-2.24-1.75-3.36-2.63
					c-0.34-0.26-0.79-0.61-0.91-0.71c-1.68-1.29-3.37-2.57-5.06-3.84c-3.81-2.86-7.65-5.69-11.51-8.48
					c-8.27-5.96-16.68-11.74-25.2-17.34c-28.16,16.6-56.41,33.06-85.1,48.73c-6.97,3.81-16.33-4.18-11.47-11.47
					c15.08-22.63,30.16-45.27,44.23-68.54c-6.04-3.27-12.12-6.45-18.25-9.54c-8.29-4.18-16.66-8.2-25.1-12.05
					c-4.34-1.98-8.7-3.92-13.09-5.81c-0.97-0.42-1.95-0.84-2.92-1.26c-0.26-0.11-0.49-0.21-0.68-0.29
					c-0.12-0.05-0.31-0.13-0.61-0.25c-2.2-0.92-4.41-1.83-6.62-2.73c-34.32-13.93-69.75-25.17-105.86-33.44
					c-18.25-4.18-36.68-7.61-55.22-10.23c-0.58-0.08-1.64-0.23-2.03-0.29c-1.03-0.14-2.07-0.27-3.1-0.4
					c-0.89-0.11-1.78-0.22-2.67-0.32c-148.09,4.47-296.17,9.5-444.18,17.38c-20.59,28.71-40.14,58.14-58.09,88.59
					c-4.95,8.4-17.41,2.64-15.32-6.46c6.02-26.21,10.77-52.69,16.5-78.97c-58.59,3.43-117.17,7.34-175.73,11.9
					c-97.14,7.57-194.57,16.98-291.06,34.71c-2.71,4.15-5.42,8.29-8.17,12.42c-7.25,10.92-14.58,21.78-21.91,32.63
					c-14.87,22.01-29.73,44.04-43.94,66.49c-4.38,6.92-15.59,4.27-15.61-4.23c-0.06-25.05-2.29-50.03-2.35-75.08
					c0-0.49,0.04-0.95,0.11-1.4c-0.96-3.52-1.55-7.08-1.88-10.68c-28.41,7.07-56.7,15.06-84.85,24.13
					c-0.94-49.87,10.3-100,33.34-144.26c-7.55-5.61-17.67,2.07-23.68,9.31c-42.2,50.77-76.48,108.12-101.3,169.29
					c-9.39,4.26-18.76,8.85-28.02,13.84c-9.85-7.54-20.41-13.89-32.37-16.82c-18.93-4.64-39.19,0.03-56.54,8.91
					c-17.35,8.88-32.31,21.73-47.08,34.45c18.73,2.64,35.85,14.9,44.38,31.79c1.52,3.01,2.75,6.17,3.71,9.4
					c-1.96,2.2-3.9,4.43-5.81,6.72c-0.1,1.16-0.46,2.28-1.14,3.28c-0.44,0.65-0.87,1.3-1.3,1.96c0.19,1.73-0.12,3.52-1.04,5.08
					c-6.62,11.24-10.87,23.39-12.69,35.9c-0.06,0.8-0.12,1.6-0.16,2.4c2.48,8.2,7.04,15.77,13.89,21.93
					c2.74,2.46,3.11,7.09,1.31,10.16c-5.55,9.45-9.22,19.93-10.49,30.6c2.22,7.82,5.06,15.46,8.54,22.83
					c12.18,8.04,24.7,15.1,37.41,21.51c-1.63,34.1-17.12,67.53-42.62,90.32c11.79,7.47,26.79,8.66,40.4,5.59
					c13.61-3.07,26.04-10.04,37.52-17.97c17.02-11.74,32.78-26.8,44.16-44.09c7.28,2.79,14.57,5.52,21.87,8.21
					c8.72,18.91,20.17,36.45,34.94,51.07c24.05,23.8,57.55,39.17,91.31,36.96c-14.16-15.35-23.55-34.49-28.08-54.8
					c49.55,15.34,99.39,28.7,149.44,40.38c-1.25-14.89-1.74-29.85-3.54-44.7c-0.43-3.59,2.9-7.19,6.15-8.08
					c3.8-1.04,7.31,0.77,9.47,3.85c14.54,20.72,29.9,40.84,44.59,61.45c105.02,21.91,210.83,37.05,316.79,48.32
					c1.09-2.14,2.26-4.21,3.68-6.08c-0.38-0.95-0.61-2.03-0.61-3.26c0-9.35-0.11-19.01,2.65-28.04c1.65-5.41,7.42-7.48,12.31-5.01
					c12.88,6.51,24.93,14.35,36.11,23.46c5.54,4.51,10.8,9.36,15.73,14.54c3.29,3.46,7.94,7.56,10.35,12.23
					c18.33,1.64,36.65,3.2,54.98,4.67c159.64,12.81,319.55,19.78,479.41,16.58c1.1-5.84,3.71-10.9,8.1-15.55
					c2.54-2.69,7.03-3.15,10.16-1.31c6.83,4.01,14.18,9.44,20.04,15.86c12.99-0.44,25.97-0.98,38.95-1.71
					c-2.34-1.26-4.13-3.57-4.36-6.92c-1.61-23.5-4.65-46.87-6.26-70.37c-0.51-7.43,9.44-10.81,14.31-5.93
					c14.34,14.38,28.1,29.33,41.03,44.98c6.59,7.98,12.97,16.13,19.15,24.43c1.95,2.63,3.88,5.28,5.79,7.94
					c34.09-3.99,68.04-9.86,101.72-18.62c49.91-12.98,103.42-36.6,131.84-97.84C1973.62,1102.08,1975.67,1038.51,1965.86,982z"/>
			</g>
		</g>
	</g>
	<g id="Layer_1_copy">
		<g>
			<g>
				<path class="st1" d="M1562.77,996.5c-2.51-14.18-5.93-27.92-9.93-41.34c-1.04-0.33-2.08-0.67-3.11-1.02
					c-8.67-2.98-17.03-6.8-25.11-11.08c-2.98-1.58-4.22-5.91-2.34-8.73c2.09-3.13,3.98-6.39,6.08-9.52
					c0.66-0.98,1.45-1.68,2.32-2.16c1.81-4.25,3.85-8.36,6.78-11.86c-2.22-5.77-4.5-11.51-6.8-17.22c-2.41-2.09-4.82-4.16-7.27-6.21
					c-5.47-4.58-11.03-9.05-16.68-13.41c-0.87-0.67-1.74-1.33-2.61-2c-0.26-0.2-0.62-0.47-0.71-0.54c-1.31-0.98-2.62-1.95-3.93-2.92
					c-2.96-2.18-5.94-4.33-8.95-6.45c-6.43-4.54-12.96-8.93-19.58-13.19c-21.89,12.63-43.84,25.16-66.13,37.08
					c-5.42,2.9-12.69-3.18-8.91-8.73c11.72-17.22,23.44-34.44,34.38-52.15c-4.69-2.48-9.42-4.91-14.18-7.26
					c-6.44-3.18-12.95-6.24-19.51-9.17c-3.37-1.51-6.76-2.98-10.17-4.42c-0.76-0.32-1.51-0.64-2.27-0.96
					c-0.2-0.09-0.38-0.16-0.53-0.22c-0.09-0.04-0.24-0.1-0.47-0.19c-1.71-0.7-3.43-1.39-5.14-2.07
					c-26.67-10.6-54.2-19.15-82.27-25.45c-14.19-3.18-28.5-5.79-42.91-7.79c-0.45-0.06-1.27-0.18-1.57-0.22
					c-0.8-0.1-1.61-0.21-2.41-0.31c-0.69-0.09-1.39-0.16-2.08-0.25c-115.08,3.4-230.17,7.23-345.19,13.22
					c-16,21.84-31.19,44.24-45.14,67.41c-3.85,6.39-13.53,2.01-11.9-4.91c4.68-19.95,8.37-40.09,12.82-60.08
					c-45.54,2.61-91.06,5.58-136.57,9.05c-57.76,4.41-115.65,9.64-173.25,17.9c-7.06,15.33-13.17,31.08-20.67,46.22
					c-4.83,9.75-20.51,7.09-22.98-3c-2.88-11.75-4.71-23.55-5.33-35.39c-1.32,0.23-2.65,0.46-3.97,0.69
					c-2.11,3.16-4.22,6.31-6.35,9.45c-5.63,8.31-11.33,16.57-17.03,24.83c-11.56,16.75-23.11,33.51-34.14,50.59
					c-3.4,5.26-12.11,3.25-12.13-3.22c-0.05-19.06-1.78-38.07-1.83-57.13c0-0.37,0.03-0.72,0.08-1.06c-0.75-2.68-1.2-5.39-1.46-8.13
					c-22.08,5.38-44.07,11.46-65.94,18.36c-0.73-37.94,8.01-76.09,25.91-109.76c-5.86-4.27-13.73,1.58-18.4,7.08
					c-32.8,38.63-59.43,82.26-78.72,128.81c-7.3,3.24-14.58,6.74-21.77,10.53c-7.65-5.74-15.86-10.57-25.16-12.8
					c-14.71-3.53-30.46,0.02-43.94,6.78c-1.22,0.61-2.41,1.25-3.6,1.91c9.11,12.76,7.79,31.22-1.59,43.44
					c1.14,1.61,2.18,3.3,3.08,5.05c1.18,2.29,2.14,4.69,2.88,7.15c-1.52,1.68-3.03,3.37-4.51,5.11c-0.08,0.88-0.36,1.74-0.89,2.49
					c-0.34,0.49-0.68,0.99-1.01,1.49c0.15,1.32-0.09,2.68-0.81,3.87c-2.39,3.98-4.37,8.11-5.96,12.34c1.69,2.14,3.08,4.61,4.47,7.11
					c2.52,4.54,5.07,9.07,7.42,13.71c2.21,4.36,1.7,8.83-0.32,12.35c1.89,5.54-2.14,11.65-6.93,14.06
					c-2.55,5.52-4.27,11.36-4.99,17.29c1.73,5.95,3.93,11.76,6.64,17.37c7.29,4.71,14.73,8.98,22.28,12.92
					c2.4,0.5,4.76,1.3,7.01,2.35c0.36,0.17,0.72,0.34,1.07,0.52c0.09,0.04,0.17,0.09,0.26,0.14c0.35,0.18,0.7,0.37,1.04,0.57
					c0.16,0.09,0.31,0.18,0.46,0.28c0.27,0.16,0.55,0.32,0.81,0.49c0.43,0.28,0.86,0.56,1.29,0.86c0.47,0.33,0.93,0.68,1.38,1.04
					c0.36,0.28,0.71,0.56,1.05,0.85c0,0,0,0,0,0c8.31,6.95,12.92,17,12.6,28.08c-0.37,12.81-6.38,21.94-14.87,30.88
					c-4.66,4.91-10.08,8.44-15.81,11.51c2.96-0.13,5.9-0.51,8.77-1.14c10.58-2.33,20.23-7.64,29.16-13.67
					c13.23-8.94,25.48-20.39,34.32-33.55c5.66,2.12,11.32,4.2,16.99,6.24c2.57,5.45,5.44,10.75,8.64,15.83
					c2.46-1.75,5.11-3.24,7.88-4.42c5.91-2.52,13.89-2.09,17.2,4.51c7.3,14.54,15.23,28.77,23.77,42.62
					c0.22,0.36,0.41,0.72,0.59,1.07c12.61,5.46,26.29,8.26,40.04,7.38c-11-11.68-18.3-26.24-21.82-41.7
					c38.51,11.67,77.24,21.84,116.14,30.73c-0.97-11.33-1.35-22.71-2.75-34.01c-0.34-2.73,2.25-5.47,4.78-6.15
					c2.95-0.79,5.68,0.59,7.36,2.93c11.3,15.77,23.23,31.08,34.66,46.75c17.97,3.67,35.97,7.08,54,10.27
					c-0.56-1.49-1.15-2.96-1.82-4.4c-0.45-0.19-0.89-0.39-1.33-0.65c-6.5-3.75-8.1-11.54-8.66-18.49
					c-0.84-10.45,14.7-17.16,21.42-8.87c8.86,10.93,14.87,23.5,17.84,37.11c54.77,9.02,109.73,16.07,164.75,21.8
					c0.85-1.63,1.76-3.2,2.86-4.63c-0.3-0.72-0.47-1.54-0.47-2.48c0-7.11-0.08-14.46,2.06-21.33c1.28-4.11,5.76-5.69,9.57-3.81
					c10.01,4.95,19.37,10.92,28.07,17.85c4.3,3.43,8.39,7.13,12.22,11.06c2.56,2.63,6.17,5.75,8.04,9.3
					c14.24,1.25,28.49,2.43,42.73,3.55c124.06,9.75,248.33,15.05,372.57,12.62c0.85-4.44,2.88-8.29,6.3-11.83
					c1.97-2.04,5.46-2.39,7.89-1c5.31,3.05,11.02,7.18,15.58,12.07c10.09-0.33,20.18-0.75,30.27-1.3c-1.82-0.96-3.21-2.72-3.39-5.26
					c-1.25-17.88-3.61-35.66-4.86-53.54c-0.4-5.65,7.34-8.22,11.12-4.51c11.14,10.94,21.83,22.31,31.89,34.23
					c5.12,6.07,10.08,12.27,14.88,18.59c1.52,2,3.01,4.02,4.5,6.04c26.49-3.04,52.88-7.5,79.05-14.17
					c38.79-9.88,80.37-27.85,102.46-74.45C1568.8,1087.87,1570.39,1039.5,1562.77,996.5z"/>
			</g>
		</g>
	</g>
	<g id="Layer_1_copy_3">
		<g>
			<g>
				<path class="st2" d="M1084.31,991.11c-1.62-9.45-3.83-18.61-6.41-27.56c-0.67-0.22-1.34-0.45-2.01-0.68
					c-5.6-1.99-10.99-4.53-16.2-7.39c-1.92-1.05-2.72-3.94-1.51-5.82c1.35-2.09,2.57-4.26,3.92-6.35c0.42-0.66,0.94-1.12,1.5-1.44
					c1.17-2.84,2.48-5.57,4.38-7.9c-1.44-3.85-2.9-7.67-4.39-11.48c-1.55-1.39-3.11-2.77-4.69-4.14c-3.53-3.05-7.12-6.03-10.76-8.94
					c-0.56-0.45-1.12-0.89-1.68-1.33c-0.17-0.13-0.4-0.31-0.46-0.36c-0.84-0.65-1.69-1.3-2.54-1.95c-1.91-1.45-3.84-2.89-5.78-4.3
					c-4.15-3.02-8.36-5.95-12.64-8.79c-14.12,8.42-28.29,16.77-42.68,24.72c-3.5,1.93-8.19-2.12-5.75-5.82
					c7.57-11.48,15.13-22.96,22.19-34.77c-3.03-1.66-6.08-3.27-9.15-4.84c-4.16-2.12-8.36-4.16-12.59-6.11
					c-2.18-1.01-4.37-1.99-6.56-2.95c-0.49-0.21-0.98-0.42-1.47-0.64c-0.13-0.06-0.24-0.11-0.34-0.15c-0.06-0.02-0.15-0.06-0.3-0.13
					c-1.1-0.47-2.21-0.93-3.32-1.38c-17.22-7.07-34.98-12.77-53.09-16.97c-9.15-2.12-18.4-3.86-27.7-5.19
					c-0.29-0.04-0.82-0.12-1.02-0.14c-0.52-0.07-1.04-0.14-1.56-0.2c-0.45-0.06-0.89-0.11-1.34-0.16
					c-74.27,2.27-148.55,4.82-222.78,8.82c-10.33,14.56-20.13,29.49-29.13,44.94c-2.48,4.26-8.73,1.34-7.68-3.28
					c3.02-13.3,5.4-26.73,8.27-40.06c-29.39,1.74-58.77,3.72-88.14,6.04c-48.72,3.84-97.59,8.61-145.98,17.61
					c-1.36,2.1-2.72,4.21-4.1,6.3c-3.63,5.54-7.31,11.05-10.99,16.55c-7.46,11.17-14.91,22.34-22.04,33.73
					c-2.19,3.51-7.82,2.17-7.83-2.14c-0.03-12.71-1.15-25.38-1.18-38.08c0-0.25,0.02-0.48,0.05-0.71c-0.48-1.78-0.78-3.59-0.94-5.42
					c-14.25,3.59-28.44,7.65-42.56,12.25c-0.47-25.3,5.16-50.73,16.72-73.19c-3.78-2.85-8.86,1.05-11.88,4.72
					c-21.16,25.75-38.34,54.84-50.79,85.87c-4.72,2.16-9.42,4.49-14.07,7.03c-4.94-3.82-10.24-7.04-16.24-8.53
					c-9.5-2.35-19.66,0.02-28.36,4.52c-0.17,0.09-0.34,0.19-0.51,0.29c-1.9,4.95-5.16,9.06-9.21,12.66
					c-1.89,2.51-3.96,4.83-6.31,6.74c6.26,2.79,11.59,7.73,14.67,13.91c0.76,1.53,1.38,3.13,1.86,4.77
					c-0.98,1.12-1.96,2.25-2.91,3.41c-0.05,0.59-0.23,1.16-0.57,1.66c-0.22,0.33-0.44,0.66-0.65,0.99c0.1,0.88-0.06,1.78-0.52,2.58
					c-3.32,5.7-5.45,11.87-6.36,18.21c-0.03,0.41-0.06,0.81-0.08,1.22c1.25,4.16,3.53,8,6.96,11.12c1.37,1.25,1.56,3.6,0.66,5.15
					c-2.78,4.79-4.62,10.11-5.26,15.52c1.12,3.97,2.54,7.84,4.29,11.58c6.11,4.08,12.39,7.66,18.76,10.91
					c-0.35,7.38-1.96,14.7-4.7,21.57c5.13,0.65,10.04,2.46,14.85,5.46c5.31,3.32,6.87,8.99,5.44,13.94
					c0.71-0.47,1.42-0.95,2.11-1.44c8.54-5.96,16.44-13.6,22.15-22.36c3.65,1.41,7.31,2.8,10.97,4.16
					c4.37,9.59,10.12,18.49,17.53,25.9c12.06,12.07,28.86,19.87,45.8,18.75c-7.1-7.78-11.81-17.49-14.08-27.8
					c24.85,7.78,49.85,14.56,74.95,20.49c-0.63-7.55-0.87-15.14-1.77-22.67c-0.22-1.82,1.46-3.65,3.09-4.1
					c1.9-0.53,3.66,0.39,4.75,1.95c7.29,10.51,14.99,20.72,22.37,31.17c52.67,11.11,105.75,18.79,158.89,24.51
					c0.55-1.09,1.14-2.13,1.85-3.09c-0.19-0.48-0.31-1.03-0.31-1.65c0-4.74-0.05-9.64,1.33-14.22c0.83-2.74,3.72-3.8,6.18-2.54
					c6.46,3.3,12.5,7.28,18.11,11.9c2.78,2.29,5.42,4.75,7.89,7.37c1.65,1.75,3.98,3.83,5.19,6.2c9.19,0.83,18.38,1.62,27.57,2.37
					c80.07,6.5,160.27,10.03,240.45,8.41c0.55-2.96,1.86-5.53,4.06-7.89c1.27-1.36,3.52-1.6,5.09-0.66
					c3.43,2.03,7.11,4.79,10.05,8.04c6.51-0.22,13.03-0.5,19.54-0.87c-1.17-0.64-2.07-1.81-2.19-3.51
					c-0.81-11.92-2.33-23.78-3.14-35.7c-0.26-3.77,4.74-5.48,7.18-3.01c7.19,7.29,14.09,14.88,20.58,22.82
					c3.31,4.05,6.51,8.18,9.6,12.39c0.98,1.33,1.94,2.68,2.9,4.03c17.1-2.03,34.13-5,51.02-9.44c25.03-6.59,51.87-18.57,66.12-49.63
					C1088.2,1052.02,1089.23,1019.77,1084.31,991.11z"/>
			</g>
		</g>
	</g>
	<g>
		<g>
			<path class="st3" d="M1965.86,982c-3.23-18.64-7.63-36.69-12.78-54.33c-1.34-0.43-2.67-0.88-4-1.34
				c-11.16-3.92-21.91-8.94-32.31-14.56c-3.83-2.08-5.43-7.77-3.01-11.47c2.7-4.12,5.12-8.39,7.82-12.51
				c0.85-1.29,1.87-2.21,2.99-2.84c2.33-5.59,4.95-10.99,8.73-15.58c-2.86-7.59-5.79-15.13-8.75-22.63
				c-3.09-2.74-6.21-5.47-9.35-8.16c-7.03-6.02-14.19-11.89-21.46-17.62c-1.12-0.88-2.24-1.75-3.36-2.63
				c-0.34-0.26-0.79-0.61-0.91-0.71c-1.68-1.29-3.37-2.57-5.06-3.84c-3.81-2.86-7.65-5.69-11.51-8.48
				c-8.27-5.96-16.68-11.74-25.2-17.34c-28.16,16.6-56.41,33.06-85.1,48.73c-6.97,3.81-16.33-4.18-11.47-11.47
				c15.08-22.63,30.16-45.27,44.23-68.54c-6.04-3.27-12.12-6.45-18.25-9.54c-8.29-4.18-16.66-8.2-25.1-12.05
				c-4.34-1.98-8.7-3.92-13.09-5.81c-0.97-0.42-1.95-0.84-2.92-1.26c-0.26-0.11-0.49-0.21-0.68-0.29c-0.12-0.05-0.31-0.13-0.61-0.25
				c-2.2-0.92-4.41-1.83-6.62-2.73c-34.32-13.93-69.75-25.17-105.86-33.44c-18.25-4.18-36.68-7.61-55.22-10.23
				c-0.58-0.08-1.64-0.23-2.03-0.29c-1.03-0.14-2.07-0.27-3.1-0.4c-0.89-0.11-1.78-0.22-2.67-0.32
				c-148.09,4.47-296.17,9.5-444.18,17.38c-20.59,28.71-40.14,58.14-58.09,88.59c-4.95,8.4-17.41,2.64-15.32-6.46
				c6.02-26.21,10.77-52.69,16.5-78.97c-58.59,3.43-117.17,7.34-175.73,11.9c-97.14,7.57-194.57,16.98-291.06,34.71
				c-2.71,4.15-5.42,8.29-8.17,12.42c-7.25,10.92-14.58,21.78-21.91,32.63c-14.87,22.01-29.73,44.04-43.94,66.49
				c-4.38,6.92-15.59,4.27-15.61-4.23c-0.06-25.05-2.29-50.03-2.35-75.08c0-0.49,0.04-0.95,0.11-1.4
				c-0.96-3.52-1.55-7.08-1.88-10.68c-28.41,7.07-56.7,15.06-84.85,24.13c-0.94-49.87,10.3-100,33.34-144.26
				c-7.55-5.61-17.67,2.07-23.68,9.31c-42.2,50.77-76.48,108.12-101.3,169.29c-9.39,4.26-18.76,8.85-28.02,13.84
				c-9.85-7.54-20.41-13.89-32.37-16.82c-18.93-4.64-39.19,0.03-56.54,8.91c-17.35,8.88-32.31,21.73-47.08,34.45
				c18.73,2.64,35.85,14.9,44.38,31.79c1.52,3.01,2.75,6.17,3.71,9.4c-1.96,2.2-3.9,4.43-5.81,6.72c-0.1,1.16-0.46,2.28-1.14,3.28
				c-0.44,0.65-0.87,1.3-1.3,1.96c0.19,1.73-0.12,3.52-1.04,5.08c-6.62,11.24-10.87,23.39-12.69,35.9c-0.06,0.8-0.12,1.6-0.16,2.4
				c2.48,8.2,7.04,15.77,13.89,21.93c2.74,2.46,3.11,7.09,1.31,10.16c-5.55,9.45-9.22,19.93-10.49,30.6
				c2.22,7.82,5.06,15.46,8.54,22.83c12.18,8.04,24.7,15.1,37.41,21.51c-1.63,34.1-17.12,67.53-42.62,90.32
				c11.79,7.47,26.79,8.66,40.4,5.59c13.61-3.07,26.04-10.04,37.52-17.97c17.02-11.74,32.78-26.8,44.16-44.09
				c7.28,2.79,14.57,5.52,21.87,8.21c8.72,18.91,20.17,36.45,34.94,51.07c24.05,23.8,57.55,39.17,91.31,36.96
				c-14.16-15.35-23.55-34.49-28.08-54.8c49.55,15.34,99.39,28.7,149.44,40.38c-1.25-14.89-1.74-29.85-3.54-44.7
				c-0.43-3.59,2.9-7.19,6.15-8.08c3.8-1.04,7.31,0.77,9.47,3.85c14.54,20.72,29.9,40.84,44.59,61.45
				c105.02,21.91,210.83,37.05,316.79,48.32c1.09-2.14,2.26-4.21,3.68-6.08c-0.38-0.95-0.61-2.03-0.61-3.26
				c0-9.35-0.11-19.01,2.65-28.04c1.65-5.41,7.42-7.48,12.31-5.01c12.88,6.51,24.93,14.35,36.11,23.46
				c5.54,4.51,10.8,9.36,15.73,14.54c3.29,3.46,7.94,7.56,10.35,12.23c18.33,1.64,36.65,3.2,54.98,4.67
				c159.64,12.81,319.55,19.78,479.41,16.58c1.1-5.84,3.71-10.9,8.1-15.55c2.54-2.69,7.03-3.15,10.16-1.31
				c6.83,4.01,14.18,9.44,20.04,15.86c12.99-0.44,25.97-0.98,38.95-1.71c-2.34-1.26-4.13-3.57-4.36-6.92
				c-1.61-23.5-4.65-46.87-6.26-70.37c-0.51-7.43,9.44-10.81,14.31-5.93c14.34,14.38,28.1,29.33,41.03,44.98
				c6.59,7.98,12.97,16.13,19.15,24.43c1.95,2.63,3.88,5.28,5.79,7.94c34.09-3.99,68.04-9.86,101.72-18.62
				c49.91-12.98,103.42-36.6,131.84-97.84C1973.62,1102.08,1975.67,1038.51,1965.86,982z"/>
		</g>
	</g>
</g>
<g id="Layer_5">
	<path d="M253.42,963.95c-3.74-2.41-8.48-2.5-12.93-2.35c-45.4,1.53-89.92,20.42-122.9,51.59c-0.27,1.05-0.53,2.11-0.73,3.18
		c-0.06,4.66,0.36,9.3,1.17,13.88c1.33,0.98,2.87,1.67,4.49,1.88c6.31,0.81,12.21-2.84,17.65-6.15
		c35.78-21.76,76.96-34.56,118.77-36.9C260.45,980.09,261.08,968.89,253.42,963.95z"/>
</g>
</svg>
