<?xml version="1.0" encoding="utf-8"?>
<!-- Generator: Adobe Adobe Illustrator 24.2.0, SVG Export Plug-In . SVG Version: 6.00 Build 0)  -->
<svg version="1.1" id="Layer_1" xmlns="http://www.w3.org/2000/svg" xmlns:xlink="http://www.w3.org/1999/xlink" x="0px" y="0px"
	 width="1000px" height="1000px" viewBox="0 0 1000 1000" style="enable-background:new 0 0 1000 1000;" xml:space="preserve">
<style type="text/css">
	.st0{fill:#8829D6;}
	.st1{fill:#C073FF;}
	.st2{fill:#D8A8FF;}
	.st3{fill:none;stroke:#000000;stroke-width:27;stroke-miterlimit:10;}
</style>
<g>
	<g id="Layer_1_1_">
		<g>
			<g>
				<path class="st0" d="M901.65,350.27c-109.8,0-472.38,0-472.38,0s6.91-133.18,0-127.07C261.5,371.47,50,477.35,50,477.35
					s333.38,175.9,379.27,244.82c8.22,12.34,0-117.75,0-117.75s399.18,0,472.38,0C966.12,604.42,966.12,350.27,901.65,350.27z"/>
			</g>
		</g>
	</g>
	<g id="Layer_1_copy_2">
		<g>
			<g>
				<path class="st1" d="M760.2,379.38c-84.85,0-365.05,0-365.05,0s5.34-101.6,0-96.94c-129.66,113.11-293.1,193.88-293.1,193.88
					s257.63,134.19,293.1,186.76c6.35,9.42,0-89.82,0-89.82s308.48,0,365.05,0C810.01,573.26,810.01,379.38,760.2,379.38z"/>
			</g>
		</g>
	</g>
	<g id="Layer_1_copy_3">
		<g>
			<g>
				<path class="st2" d="M658.13,397.46c-65.23,0-280.62,0-280.62,0s4.11-81.98,0-78.22C277.84,410.51,152.2,475.68,152.2,475.68
					s198.04,108.28,225.31,150.7c4.88,7.6,0-72.48,0-72.48s237.13,0,280.62,0C696.42,553.9,696.42,397.46,658.13,397.46z"/>
			</g>
		</g>
	</g>
	<g id="Layer_1_copy_4">
		<g>
			<g>
				<g>
					<path class="st1" d="M441.16,384.32c-0.03-0.02-0.05-0.04-0.08-0.06C441.11,384.28,441.13,384.3,441.16,384.32z"/>
					<path class="st1" d="M441.24,547.66c-0.01,0.18-0.02,0.36-0.04,0.54C441.22,548.01,441.22,547.83,441.24,547.66z"/>
					<path class="st1" d="M440.52,383.88c-0.22-0.15-0.43-0.31-0.65-0.48C440.09,383.57,440.3,383.72,440.52,383.88z"/>
					<path class="st1" d="M441.04,550.78c-0.01,0.28-0.03,0.56-0.04,0.85C441.01,551.34,441.02,551.06,441.04,550.78z"/>
					<path class="st1" d="M442.52,597.13c-0.01-0.06-0.02-0.11-0.04-0.16C442.49,597.03,442.51,597.08,442.52,597.13z"/>
					<path class="st1" d="M443.91,385.89c0,0,0.01,0,0.02,0.01C443.92,385.89,443.91,385.89,443.91,385.89z"/>
					<path class="st1" d="M518.16,546.03c0.74,0.78,1.47,1.59,2.19,2.45C519.63,547.63,518.9,546.82,518.16,546.03z"/>
					<path class="st1" d="M440.92,553.91c-0.01,0.33-0.01,0.66-0.02,0.99C440.9,554.57,440.91,554.24,440.92,553.91z"/>
					<path class="st1" d="M442.97,598.87c-0.01-0.06-0.03-0.11-0.05-0.16C442.94,598.76,442.95,598.82,442.97,598.87z"/>
					<path class="st1" d="M432.41,354.17c0.35-1.69,0.74-3.37,1.19-5.03C433.15,350.81,432.75,352.49,432.41,354.17z"/>
					<path class="st1" d="M444.07,602.75c0.08,0.06,0.17,0.11,0.25,0.16c-0.09-0.25-0.18-0.5-0.27-0.75
						C444.05,602.36,444.06,602.55,444.07,602.75z"/>
					<path class="st1" d="M431.93,356.7c0.14-0.78,0.28-1.56,0.44-2.34C432.22,355.14,432.06,355.92,431.93,356.7z"/>
					<path class="st1" d="M440.97,561.28c-0.01-0.31-0.02-0.62-0.03-0.93C440.95,560.66,440.96,560.97,440.97,561.28z"/>
					<path class="st1" d="M440.88,557.08c0,0.35,0,0.69,0,1.04C440.88,557.77,440.89,557.42,440.88,557.08z"/>
					<path class="st1" d="M444.6,386.21c0.03,0.01,0.05,0.02,0.08,0.04C444.65,386.23,444.62,386.21,444.6,386.21z"/>
					<path class="st1" d="M514.99,542.94c1.1,0.99,2.15,2.01,3.17,3.09C517.14,544.96,516.09,543.94,514.99,542.94z"/>
					<path class="st1" d="M510.26,539.08c0.31,0.23,0.61,0.46,0.91,0.69C510.87,539.54,510.56,539.31,510.26,539.08z"/>
					<path class="st1" d="M514.87,542.84c-0.35-0.31-0.69-0.62-1.05-0.92C514.18,542.22,514.53,542.53,514.87,542.84z"/>
					<path class="st1" d="M521.33,549.66c-0.31-0.38-0.62-0.76-0.93-1.13C520.71,548.9,521.02,549.28,521.33,549.66z"/>
					<path class="st1" d="M883.21,379.38h-75.7c49.82,0,49.82,193.88,0,193.88h75.7C933.03,573.26,933.03,379.38,883.21,379.38z"/>
					<path class="st1" d="M522.54,551.19c-0.33-0.43-0.66-0.85-0.99-1.26C521.88,550.34,522.21,550.76,522.54,551.19z"/>
					<path class="st1" d="M511.47,540c0.37,0.29,0.74,0.58,1.1,0.87C512.21,540.59,511.85,540.29,511.47,540z"/>
					<path class="st1" d="M443.47,600.52c0-0.02-0.01-0.04-0.02-0.06C443.46,600.48,443.46,600.5,443.47,600.52z"/>
					<path class="st1" d="M512.6,540.9c0.4,0.32,0.79,0.65,1.17,0.97C513.39,541.55,513,541.22,512.6,540.9z"/>
					<path class="st1" d="M445.1,526.42c0.13-0.45,0.26-0.9,0.41-1.36C445.36,525.51,445.23,525.96,445.1,526.42z"/>
					<path class="st1" d="M444.02,530.44c-0.07,0.29-0.14,0.58-0.21,0.87C443.88,531.01,443.95,530.72,444.02,530.44z"/>
					<path class="st1" d="M444.41,528.92c0.1-0.39,0.2-0.77,0.31-1.16C444.61,528.15,444.51,528.53,444.41,528.92z"/>
					<path class="st1" d="M447.65,518.75c-0.32,0.85-0.63,1.71-0.93,2.56C447.02,520.46,447.33,519.6,447.65,518.75z"/>
					<path class="st1" d="M508.67,537.92c0.43,0.3,0.84,0.61,1.25,0.91C509.51,538.53,509.09,538.22,508.67,537.92z"/>
					<path class="st1" d="M446.41,522.25c-0.18,0.54-0.36,1.08-0.53,1.62C446.04,523.33,446.23,522.79,446.41,522.25z"/>
				</g>
			</g>
		</g>
	</g>
	<g id="Layer_1_copy_5">
		<g>
			<g>
				<g>
					<path class="st2" d="M634.45,580.36c0.06,0.55,0.13,1.09,0.21,1.62C634.58,581.44,634.51,580.9,634.45,580.36z"/>
					<path class="st2" d="M633.75,544.01c0,0.29-0.01,0.58-0.01,0.87C633.74,544.58,633.74,544.29,633.75,544.01z"/>
					<path class="st2" d="M633.93,538.52c-0.01,0.15-0.01,0.31-0.02,0.46C633.92,538.82,633.92,538.67,633.93,538.52z"/>
					<path class="st2" d="M635.44,396.56L635.44,396.56C635.44,396.56,635.44,396.56,635.44,396.56z"/>
					<path class="st2" d="M635.83,396.83c0.01,0.01,0.03,0.02,0.04,0.03C635.86,396.85,635.84,396.84,635.83,396.83z"/>
					<path class="st2" d="M635.23,585.1c-0.06-0.26-0.1-0.51-0.16-0.77C635.13,584.59,635.18,584.85,635.23,585.1z"/>
					<path class="st2" d="M633.81,541.25c-0.01,0.25-0.01,0.49-0.02,0.74C633.8,541.75,633.81,541.5,633.81,541.25z"/>
					<path class="st2" d="M634.92,583.56c-0.06-0.32-0.11-0.63-0.16-0.96C634.81,582.92,634.86,583.24,634.92,583.56z"/>
					<path class="st2" d="M673.57,531.8c0.21,0.26,0.42,0.51,0.62,0.77C673.99,532.31,673.78,532.06,673.57,531.8z"/>
					<path class="st2" d="M674.2,532.59c0.23,0.28,0.44,0.57,0.66,0.86C674.65,533.15,674.43,532.87,674.2,532.59z"/>
					<path class="st2" d="M635.51,586.35c0,0.17,0.01,0.35,0.01,0.52c0.05,0.05,0.09,0.1,0.14,0.14c-0.09-0.35-0.16-0.69-0.24-1.04
						C635.45,586.09,635.48,586.22,635.51,586.35z"/>
					<path class="st2" d="M677.35,410.01c-0.84,0.99-1.68,1.99-2.52,2.98c1.01-1.2,2.03-2.4,3.04-3.6
						C677.7,409.59,677.52,409.8,677.35,410.01z"/>
					<path class="st2" d="M628.67,370.94c0.08-0.69,0.16-1.39,0.25-2.08C628.84,369.55,628.75,370.24,628.67,370.94z"/>
					<path class="st2" d="M633.73,546.79c0,0.3,0,0.61,0,0.91C633.73,547.39,633.73,547.09,633.73,546.79z"/>
					<path class="st2" d="M633.78,550.47c0-0.28-0.01-0.55-0.01-0.82C633.76,549.92,633.77,550.2,633.78,550.47z"/>
					<path class="st2" d="M628.94,368.72c0.19-1.48,0.42-2.95,0.67-4.41C629.36,365.78,629.14,367.24,628.94,368.72z"/>
					<path class="st2" d="M679.81,541.62c-0.18-0.38-0.37-0.74-0.56-1.11C679.45,540.88,679.63,541.24,679.81,541.62z"/>
					<path class="st2" d="M672.88,530.99c0.18,0.2,0.35,0.4,0.51,0.6C673.23,531.39,673.05,531.19,672.88,530.99z"/>
					<path class="st2" d="M671.98,529.97c0.24,0.27,0.47,0.53,0.7,0.8C672.46,530.51,672.23,530.24,671.98,529.97z"/>
					<path class="st2" d="M675.55,534.38c0.62,0.87,1.22,1.77,1.79,2.71c0.42,0.69,0.83,1.4,1.23,2.15
						C677.61,537.46,676.63,535.89,675.55,534.38z"/>
					<path class="st2" d="M668.39,526.81c-0.63-0.45-1.28-0.86-1.93-1.24C667.11,525.95,667.75,526.36,668.39,526.81z"/>
					<path class="st2" d="M679.13,540.28c-0.18-0.34-0.35-0.67-0.53-0.99C678.78,539.61,678.96,539.94,679.13,540.28z"/>
					<path class="st2" d="M635.5,523.4c-0.04,0.25-0.08,0.5-0.11,0.76C635.42,523.91,635.46,523.66,635.5,523.4z"/>
					<path class="st2" d="M883.39,390.84h-42.73c28.12,0,28.12,170.14,0,170.14h42.73C911.51,560.98,911.51,390.84,883.39,390.84z"
						/>
					<path class="st2" d="M664.2,518.12c0.01,0.36,0.02,0.71,0.02,1.07C664.22,518.84,664.22,518.48,664.2,518.12z"/>
					<path class="st2" d="M675.49,534.29c-0.19-0.27-0.39-0.54-0.59-0.81C675.1,533.75,675.3,534.02,675.49,534.29z"/>
					<path class="st2" d="M635.72,522.07c0.06-0.34,0.11-0.68,0.18-1.02C635.83,521.39,635.78,521.73,635.72,522.07z"/>
					<path class="st2" d="M636.54,517.64c0.1-0.48,0.2-0.95,0.3-1.43C636.74,516.69,636.64,517.17,636.54,517.64z"/>
					<path class="st2" d="M636.11,519.88c0.08-0.4,0.15-0.8,0.23-1.19C636.26,519.08,636.18,519.48,636.11,519.88z"/>
					<path class="st2" d="M641.03,503.98c-1.26,1.94-2.23,4.15-2.91,6.62C638.8,508.13,639.77,505.93,641.03,503.98z"/>
					<path class="st2" d="M663.16,510.84c-0.17-0.63-0.34-1.25-0.53-1.82C662.82,509.59,663,510.2,663.16,510.84z"/>
					<path class="st2" d="M663.4,511.81c0.44,1.98,0.73,4.17,0.81,6.31C664.13,515.98,663.84,513.79,663.4,511.81z"/>
					<path class="st2" d="M637.54,513.15c-0.18,0.75-0.35,1.5-0.53,2.25C637.19,514.65,637.36,513.9,637.54,513.15z"/>
				</g>
			</g>
		</g>
	</g>
	<g id="Layer_1_copy_6">
		<g>
			<g>
				<g>
					<path class="st2" d="M398.46,539.46c-0.01,0.24-0.02,0.48-0.03,0.72C398.44,539.94,398.45,539.7,398.46,539.46z"/>
					<path class="st2" d="M397.55,396.44c0.34,0.28,0.68,0.55,1.02,0.79C398.23,396.98,397.89,396.72,397.55,396.44z"/>
					<path class="st2" d="M398.41,548.43c-0.01-0.27-0.01-0.53-0.02-0.8C398.4,547.9,398.4,548.17,398.41,548.43z"/>
					<path class="st2" d="M398.62,536.79c-0.01,0.15-0.02,0.31-0.03,0.46C398.6,537.09,398.61,536.94,398.62,536.79z"/>
					<path class="st2" d="M399.34,577.53c0.08,0.53,0.18,1.06,0.29,1.58C399.52,578.58,399.42,578.06,399.34,577.53z"/>
					<path class="st2" d="M399.16,397.63c0.14,0.09,0.27,0.19,0.41,0.28l0,0c0.01,0,0.02,0.01,0.03,0.01
						C399.45,397.84,399.3,397.73,399.16,397.63z"/>
					<path class="st2" d="M398.34,544.84c0,0.29,0,0.59,0,0.89C398.34,545.43,398.34,545.13,398.34,544.84z"/>
					<path class="st2" d="M456.22,532.76c0.86,0.85,1.68,1.72,2.47,2.63C457.9,534.48,457.08,533.61,456.22,532.76z"/>
					<path class="st2" d="M455.31,531.89c0.28,0.26,0.55,0.52,0.82,0.78C455.86,532.41,455.59,532.15,455.31,531.89z"/>
					<path class="st2" d="M458.7,535.41c0.58,0.67,1.14,1.36,1.71,2.08C459.85,536.76,459.28,536.07,458.7,535.41z"/>
					<path class="st2" d="M400.54,398.47c0.06,0.03,0.12,0.07,0.18,0.11C400.67,398.55,400.61,398.51,400.54,398.47z"/>
					<path class="st2" d="M391.35,373.63c0.1-0.67,0.22-1.34,0.35-2.01C391.57,372.29,391.46,372.96,391.35,373.63z"/>
					<path class="st2" d="M455.27,531.85c-0.3-0.28-0.61-0.55-0.91-0.83C454.67,531.29,454.97,531.57,455.27,531.85z"/>
					<path class="st2" d="M391.72,371.46c0.27-1.44,0.58-2.87,0.93-4.29C392.3,368.59,391.99,370.02,391.72,371.46z"/>
					<path class="st2" d="M400.8,583.36c0.01,0.17,0.01,0.34,0.02,0.5c0.07,0.05,0.13,0.09,0.19,0.14
						c-0.12-0.34-0.22-0.68-0.33-1.01C400.73,583.12,400.77,583.24,400.8,583.36z"/>
					<path class="st2" d="M398.37,542.14c0,0.28-0.01,0.56-0.01,0.85C398.35,542.7,398.36,542.42,398.37,542.14z"/>
					<path class="st2" d="M452.52,529.46c0.24,0.2,0.48,0.39,0.71,0.59C453,529.85,452.76,529.66,452.52,529.46z"/>
					<path class="st2" d="M400,580.65c-0.08-0.31-0.15-0.62-0.23-0.93C399.84,580.02,399.92,580.34,400,580.65z"/>
					<path class="st2" d="M451.28,528.47c0.34,0.26,0.66,0.52,0.97,0.77C451.94,528.99,451.62,528.73,451.28,528.47z"/>
					<path class="st2" d="M462.12,539.81c-0.26-0.37-0.52-0.72-0.77-1.07C461.6,539.09,461.86,539.45,462.12,539.81z"/>
					<path class="st2" d="M451.28,528.47c-2.68-2.09-5.86-3.63-8.99-4.81C445.43,524.84,448.61,526.38,451.28,528.47z"/>
					<path class="st2" d="M743.83,393H684.7c38.91,0,38.91,165.66,0,165.66h59.13C782.74,558.67,782.74,393,743.83,393z"/>
					<path class="st2" d="M461.18,538.5c-0.24-0.33-0.48-0.65-0.72-0.96C460.69,537.85,460.93,538.18,461.18,538.5z"/>
					<path class="st2" d="M453.47,530.25c0.29,0.25,0.58,0.49,0.86,0.74C454.05,530.75,453.77,530.5,453.47,530.25z"/>
					<path class="st2" d="M401.63,518.64c0.1-0.39,0.21-0.77,0.32-1.16C401.85,517.87,401.74,518.26,401.63,518.64z"/>
					<path class="st2" d="M400.79,522.08c-0.06,0.25-0.11,0.49-0.16,0.74C400.68,522.57,400.73,522.32,400.79,522.08z"/>
					<path class="st2" d="M400.42,582.15c-0.08-0.25-0.15-0.5-0.22-0.75C400.27,581.65,400.35,581.9,400.42,582.15z"/>
					<path class="st2" d="M401.09,520.78c0.08-0.33,0.16-0.66,0.24-0.99C401.25,520.12,401.17,520.45,401.09,520.78z"/>
					<path class="st2" d="M402.9,514.28c0.23-0.73,0.47-1.46,0.72-2.19c0.67-2.57,1.74-4.89,3.22-6.95
						c-1.48,2.06-2.55,4.38-3.22,6.95C403.37,512.82,403.13,513.55,402.9,514.28z"/>
					<path class="st2" d="M408.45,503.16c-0.58,0.63-1.12,1.29-1.61,1.98C407.33,504.46,407.87,503.8,408.45,503.16z"/>
					<path class="st2" d="M402.24,516.47c0.14-0.46,0.27-0.92,0.42-1.38C402.51,515.54,402.37,516,402.24,516.47z"/>
				</g>
			</g>
		</g>
	</g>
	<g id="Layer_1_copy">
		<g>
			<g>
				<path class="st3" d="M901.65,350.27c-109.8,0-472.38,0-472.38,0s6.91-133.18,0-127.07C261.5,371.47,50,477.35,50,477.35
					s333.38,175.9,379.27,244.82c8.22,12.34,0-117.75,0-117.75s399.18,0,472.38,0C966.12,604.42,966.12,350.27,901.65,350.27z"/>
			</g>
		</g>
	</g>
</g>
</svg>
