<?xml version="1.0" encoding="utf-8"?>
<!-- Generator: Adobe Adobe Illustrator 24.2.0, SVG Export Plug-In . SVG Version: 6.00 Build 0)  -->
<svg version="1.1" id="Layer_2" xmlns="http://www.w3.org/2000/svg" xmlns:xlink="http://www.w3.org/1999/xlink" x="0px" y="0px"
	 width="2048px" height="2048px" viewBox="0 0 2048 2048" style="enable-background:new 0 0 2048 2048;" xml:space="preserve">
<style type="text/css">
	.st0{fill:#7798F2;}
</style>
<g>
	<g>
		<polygon class="st0" points="367.85,1837 367.84,1816 370.16,1816 370.15,1837 		"/>
		<polygon class="st0" points="367.81,1772 367.79,1751 370.21,1751 370.19,1772 		"/>
		<polygon class="st0" points="367.67,1707 367.6,1686 370.4,1686 370.33,1707 		"/>
		<polygon class="st0" points="367.42,1642 367.31,1621 370.69,1621 370.58,1642 		"/>
		<polygon class="st0" points="367.07,1577 366.91,1556 371.09,1556 370.93,1577 		"/>
		<polygon class="st0" points="366.59,1512 366.41,1491 371.59,1491 371.41,1512 		"/>
		<polygon class="st0" points="366.01,1447 365.8,1426 372.2,1426 371.99,1447 		"/>
		<polygon class="st0" points="365.33,1382 365.11,1361 372.89,1361 372.67,1382 		"/>
		<polygon class="st0" points="364.58,1317 364.33,1296 373.67,1296 373.42,1317 		"/>
		<polygon class="st0" points="363.8,1252 363.55,1231 374.45,1231 374.2,1252 		"/>
		<polygon class="st0" points="363.01,1187 362.76,1166 375.24,1166 374.99,1187 		"/>
		<polygon class="st0" points="362.22,1122 361.96,1101 376.04,1101 375.78,1122 		"/>
		<polygon class="st0" points="361.46,1057 361.23,1036 376.77,1036 376.54,1057 		"/>
		<polygon class="st0" points="360.77,992 360.56,971 377.44,971 377.23,992 		"/>
		<polygon class="st0" points="360.16,927 359.99,906 378.01,906 377.84,927 		"/>
		<polygon class="st0" points="359.64,862 359.51,841 378.49,841 378.36,862 		"/>
		<polygon class="st0" points="359.23,797 359.12,776 378.88,776 378.77,797 		"/>
		<polygon class="st0" points="358.94,732 358.85,711 379.15,711 379.06,732 		"/>
		<polygon class="st0" points="358.75,667 358.71,646 379.29,646 379.25,667 		"/>
		<rect x="358.65" y="581" class="st0" width="20.7" height="21"/>
		<polygon class="st0" points="358.65,537 358.68,516 379.32,516 379.35,537 		"/>
		<polygon class="st0" points="358.76,472 358.8,451 379.2,451 379.24,472 		"/>
		<polygon class="st0" points="358.96,407 359.04,386 378.96,386 379.04,407 		"/>
		<polygon class="st0" points="359.25,342 359.37,321 378.63,321 378.75,342 		"/>
		<polygon class="st0" points="359.63,277 359.78,256 378.22,256 378.37,277 		"/>
		<path class="st0" d="M360.09,212l0.04-2.77c0.02-0.95,0.06-1.91,0.11-2.86c0.1-1.91,0.24-3.81,0.44-5.71c0.4-3.8,1-7.57,1.8-11.3
			l17.1,3.56c-0.62,3.12-1.07,6.28-1.35,9.45c-0.14,1.59-0.24,3.18-0.29,4.77c-0.03,0.8-0.04,1.59-0.05,2.39l0.01,2.48H360.09z"/>
		<path class="st0" d="M382.74,146.41c4.72-5.96,10.07-11.41,15.94-16.22l10.47,12.55c-4.88,4.16-9.31,8.84-13.19,13.93
			L382.74,146.41z"/>
		<path class="st0" d="M441,109.24c7.36-1.74,14.91-2.66,22.45-2.78l0.36,15.12c-6.46,0.22-12.88,1.13-19.12,2.73L441,109.24z"/>
		<polygon class="st0" points="507.63,106.85 528.63,107.05 528.63,120.95 507.63,121.15 		"/>
		<polygon class="st0" points="572.63,107.47 593.63,107.67 593.63,120.33 572.63,120.53 		"/>
		<polygon class="st0" points="637.63,108.09 658.63,108.29 658.63,119.71 637.63,119.91 		"/>
		<polygon class="st0" points="702.63,108.67 723.63,108.85 723.63,119.15 702.63,119.33 		"/>
		<polygon class="st0" points="767.63,109.18 788.63,109.34 788.63,118.66 767.63,118.82 		"/>
		<polygon class="st0" points="832.63,109.62 853.63,109.75 853.63,118.25 832.63,118.38 		"/>
		<polygon class="st0" points="897.63,109.98 918.63,110.08 918.63,117.92 897.63,118.02 		"/>
		<polygon class="st0" points="962.63,110.26 983.63,110.32 983.63,117.68 962.63,117.74 		"/>
		<polygon class="st0" points="1027.63,110.44 1048.63,110.48 1048.63,117.52 1027.63,117.56 		"/>
		<polygon class="st0" points="1092.63,110.52 1113.63,110.54 1113.63,117.46 1092.63,117.48 		"/>
		<polygon class="st0" points="1157.63,110.53 1178.63,110.51 1178.63,117.49 1157.63,117.47 		"/>
		<polygon class="st0" points="1222.63,110.47 1243.63,110.43 1243.63,117.57 1222.63,117.53 		"/>
		<polygon class="st0" points="1287.63,110.34 1308.63,110.28 1308.63,117.72 1287.63,117.66 		"/>
		<polygon class="st0" points="1352.63,110.13 1373.63,110.06 1373.63,117.94 1352.63,117.87 		"/>
		<polygon class="st0" points="1417.63,109.86 1438.63,109.76 1438.63,118.24 1417.63,118.14 		"/>
		<polygon class="st0" points="1482.63,109.52 1503.63,109.4 1503.63,118.6 1482.63,118.48 		"/>
		<polygon class="st0" points="1547.63,109.12 1568.63,108.98 1568.63,119.02 1547.63,118.88 		"/>
		<path class="st0" d="M1613.79,113.7c7.04,2.24,13.84,5.26,20.24,8.97l-5.59,9.48c-5.66-3.4-11.69-6.19-17.96-8.3L1613.79,113.7z"
			/>
		<path class="st0" d="M1667.76,154.21c4.15,6.15,7.64,12.77,10.37,19.68l-11.22,4.33c-2.31-6.14-5.3-12.04-8.89-17.55
			L1667.76,154.21z"/>
		<polygon class="st0" points="1685.37,219.26 1685.54,240.26 1672.46,240.26 1672.63,219.26 		"/>
		<polygon class="st0" points="1685.91,284.26 1686.09,305.26 1671.91,305.26 1672.09,284.26 		"/>
		<polygon class="st0" points="1686.46,349.26 1686.63,370.26 1671.37,370.26 1671.54,349.26 		"/>
		<polygon class="st0" points="1686.97,414.26 1687.14,435.26 1670.86,435.26 1671.03,414.26 		"/>
		<polygon class="st0" points="1687.49,479.26 1687.64,500.26 1670.36,500.26 1670.51,479.26 		"/>
		<polygon class="st0" points="1687.95,544.26 1688.09,565.26 1669.91,565.26 1670.05,544.26 		"/>
		<polygon class="st0" points="1688.36,609.26 1688.48,630.26 1669.52,630.26 1669.64,609.26 		"/>
		<polygon class="st0" points="1688.72,674.26 1688.83,695.26 1669.17,695.26 1669.28,674.26 		"/>
		<polygon class="st0" points="1689.04,739.26 1689.12,760.26 1668.88,760.26 1668.96,739.26 		"/>
		<polygon class="st0" points="1689.29,804.26 1689.37,825.26 1668.63,825.26 1668.71,804.26 		"/>
		<polygon class="st0" points="1689.52,869.26 1689.59,890.26 1668.41,890.26 1668.48,869.26 		"/>
		<polygon class="st0" points="1689.74,934.26 1689.81,955.26 1668.19,955.26 1668.26,934.26 		"/>
		<polygon class="st0" points="1689.96,999.26 1690.03,1020.26 1667.97,1020.26 1668.04,999.26 		"/>
		<polygon class="st0" points="1690.18,1064.26 1690.25,1085.26 1667.75,1085.26 1667.82,1064.26 		"/>
		<polygon class="st0" points="1690.4,1129.26 1690.47,1150.26 1667.53,1150.26 1667.6,1129.26 		"/>
		<polygon class="st0" points="1690.61,1194.26 1690.67,1215.26 1667.33,1215.26 1667.39,1194.26 		"/>
		<polygon class="st0" points="1690.81,1259.26 1690.87,1280.26 1667.13,1280.26 1667.19,1259.26 		"/>
		<polygon class="st0" points="1690.98,1324.26 1691.03,1345.26 1666.97,1345.26 1667.02,1324.26 		"/>
		<polygon class="st0" points="1691.13,1389.26 1691.17,1410.26 1666.83,1410.26 1666.87,1389.26 		"/>
		<polygon class="st0" points="1691.25,1454.26 1691.27,1475.26 1666.73,1475.26 1666.75,1454.26 		"/>
		<polygon class="st0" points="1691.32,1519.26 1691.34,1540.26 1666.66,1540.26 1666.68,1519.26 		"/>
		<polygon class="st0" points="1691.36,1584.26 1691.36,1605.26 1666.64,1605.26 1666.64,1584.26 		"/>
		<polygon class="st0" points="1691.34,1649.26 1691.34,1670.26 1666.66,1670.26 1666.66,1649.26 		"/>
		<polygon class="st0" points="1691.32,1714.26 1691.28,1735.26 1666.72,1735.26 1666.68,1714.26 		"/>
		<polygon class="st0" points="1691.2,1779.26 1691.16,1800.26 1666.84,1800.26 1666.8,1779.26 		"/>
		<path class="st0" d="M1690.78,1845.15c-0.59,7.84-2.04,15.64-4.31,23.18l-23.08-6.91c1.75-5.87,2.85-11.93,3.29-18.05
			L1690.78,1845.15z"/>
		<path class="st0" d="M1662.06,1910.84c-5.34,5.76-11.3,10.94-17.75,15.42l-13.57-19.41c5.03-3.54,9.67-7.63,13.82-12.16
			L1662.06,1910.84z"/>
		<path class="st0" d="M1598.84,1944.41c-3.88,0.59-7.79,0.97-11.7,1.15c-0.98,0.04-1.96,0.07-2.94,0.09l-2.86,0.01l-5.25-0.02
			v-23.28l5.25-0.02l2.39-0.03l2.31-0.09c3.08-0.16,6.15-0.47,9.19-0.96L1598.84,1944.41z"/>
		<polygon class="st0" points="1532.1,1945.5 1511.1,1945.4 1511.1,1922.6 1532.1,1922.5 		"/>
		<polygon class="st0" points="1467.1,1945.19 1446.1,1945.09 1446.1,1922.91 1467.1,1922.81 		"/>
		<polygon class="st0" points="1402.1,1944.81 1381.1,1944.67 1381.1,1923.33 1402.1,1923.19 		"/>
		<polygon class="st0" points="1337.1,1944.35 1316.1,1944.17 1316.1,1923.83 1337.1,1923.65 		"/>
		<polygon class="st0" points="1272.1,1943.8 1251.1,1943.59 1251.1,1924.41 1272.1,1924.2 		"/>
		<polygon class="st0" points="1207.1,1943.16 1186.1,1942.93 1186.1,1925.07 1207.1,1924.84 		"/>
		<polygon class="st0" points="1142.1,1942.44 1121.1,1942.2 1121.1,1925.8 1142.1,1925.56 		"/>
		<polygon class="st0" points="1077.1,1941.67 1056.1,1941.41 1056.1,1926.59 1077.1,1926.33 		"/>
		<polygon class="st0" points="1012.1,1940.86 991.1,1940.59 991.1,1927.41 1012.1,1927.14 		"/>
		<polygon class="st0" points="947.1,1940.03 926.1,1939.76 926.1,1928.24 947.1,1927.97 		"/>
		<polygon class="st0" points="882.1,1939.22 861.1,1938.97 861.1,1929.03 882.1,1928.78 		"/>
		<polygon class="st0" points="817.1,1938.43 796.1,1938.18 796.1,1929.82 817.1,1929.57 		"/>
		<polygon class="st0" points="752.1,1937.69 731.1,1937.46 731.1,1930.54 752.1,1930.31 		"/>
		<polygon class="st0" points="687.1,1937.03 666.1,1936.84 666.1,1931.16 687.1,1930.97 		"/>
		<polygon class="st0" points="622.1,1936.46 601.1,1936.3 601.1,1931.7 622.1,1931.54 		"/>
		<polygon class="st0" points="557.1,1935.99 536.1,1935.87 536.1,1932.13 557.1,1932.01 		"/>
		<polygon class="st0" points="492.1,1935.62 471.1,1935.53 471.1,1932.47 492.1,1932.38 		"/>
		<path class="st0" d="M427.59,1927.59c-6.53-2.8-12.74-6.31-18.51-10.44l1.5-2.11c5.64,3.98,11.71,7.35,18.08,10.03L427.59,1927.59
			z"/>
		<path class="st0" d="M379.77,1884.07c-3.39-6.22-6.11-12.82-8.07-19.63l2.29-0.66c1.94,6.64,4.61,13.06,7.93,19.12L379.77,1884.07
			z"/>
	</g>
</g>
</svg>
